<?xml version="1.0" encoding="UTF-8"?>
<svg version="1.1" xmlns="http://www.w3.org/2000/svg" width="259" height="290">
<path d="M0 0 C85.47 0 170.94 0 259 0 C259 95.7 259 191.4 259 290 C173.53 290 88.06 290 0 290 C0 194.3 0 98.6 0 0 Z " fill="#F9FBF7" transform="translate(0,0)"/>
<path d="M0 0 C4.54118756 2.61187935 7.51558323 6.25966938 10.546875 10.46484375 C11.206875 11.37234375 11.866875 12.27984375 12.546875 13.21484375 C14.70905514 20.24192921 14.75345843 28.7684682 11.63818359 35.54443359 C10.43280556 37.66557534 9.04089467 39.36187832 7.4296875 41.19140625 C6.88973145 41.80838379 6.34977539 42.42536133 5.79345703 43.06103516 C5.38208496 43.52429199 4.97071289 43.98754883 4.546875 44.46484375 C5.79339844 44.60019531 7.03992188 44.73554687 8.32421875 44.875 C30.3399313 47.54264811 47.60314999 56.25844855 64.546875 70.46484375 C65.16691406 70.93148437 65.78695312 71.398125 66.42578125 71.87890625 C69.05543957 74.06317001 70.35278561 75.51846989 71.05078125 78.921875 C71.24030649 83.09754402 71.17808501 85.60219007 68.671875 89.02734375 C64.7040188 91.71148177 61.26570693 92.21002978 56.546875 91.46484375 C53.38122043 90.06749566 50.59788342 88.20875505 47.734375 86.27734375 C46.14866667 85.25859712 44.56013143 84.24423675 42.96875 83.234375 C42.20884766 82.75049316 41.44894531 82.26661133 40.66601562 81.76806641 C36.49498356 79.20297779 32.12179727 77.18970399 27.546875 75.46484375 C26.92151855 75.21025391 26.29616211 74.95566406 25.65185547 74.69335938 C14.25117744 70.39160231 -1.14064608 70.41850673 -12.703125 74.27734375 C-23.54304453 79.44403437 -30.76192011 87.24369755 -35.3671875 98.2265625 C-42.84535346 120.52656099 -37.70649536 144.43697519 -28.453125 165.46484375 C-28.00195312 166.51542969 -27.55078125 167.56601563 -27.0859375 168.6484375 C-18.77601394 187.35699513 -7.59706942 202.75419705 6.546875 217.46484375 C7.41699219 218.37621094 8.28710938 219.28757813 9.18359375 220.2265625 C25.08822607 236.53068323 52.8893803 259.06539075 76.765625 259.6953125 C78.19277484 259.69139893 79.61993341 259.67703582 81.046875 259.65234375 C81.75457031 259.65169922 82.46226562 259.65105469 83.19140625 259.65039062 C88.04706787 259.6104446 92.73915676 259.14160589 97.546875 258.46484375 C94.68721398 260.70531773 91.77621881 262.53588649 88.58984375 264.27734375 C87.64173828 264.79554688 86.69363281 265.31375 85.71679688 265.84765625 C84.73259766 266.38132812 83.74839844 266.915 82.734375 267.46484375 C81.76177734 267.99851562 80.78917969 268.5321875 79.78710938 269.08203125 C64.95799265 277.15421124 64.95799265 277.15421124 58.546875 276.46484375 C36.66914164 269.92667056 15.65448849 253.41747134 -0.6640625 238.04296875 C-2.61514111 236.23945071 -4.55455513 234.5339788 -6.60546875 232.85546875 C-8.85668599 230.96555798 -10.7518828 229.19285063 -12.640625 226.96484375 C-13.22585937 226.27519531 -13.81109375 225.58554688 -14.4140625 224.875 C-15.42339844 223.68197266 -15.42339844 223.68197266 -16.453125 222.46484375 C-17.29101562 221.51480469 -18.12890625 220.56476563 -18.9921875 219.5859375 C-29.98486976 207.04222488 -38.69380082 193.20165906 -46.453125 178.46484375 C-46.93458984 177.5531543 -46.93458984 177.5531543 -47.42578125 176.62304688 C-52.92212722 166.03280705 -56.44640357 154.98823425 -59.453125 143.46484375 C-59.63391602 142.78873047 -59.81470703 142.11261719 -60.00097656 141.41601562 C-64.16603042 125.26918655 -65.01091385 105.35384494 -59.453125 89.46484375 C-58.94265625 87.95470703 -58.94265625 87.95470703 -58.421875 86.4140625 C-52.72766903 71.27440001 -42.17502623 59.91576077 -27.80078125 52.65625 C-25.28234098 51.43628696 -25.28234098 51.43628696 -22.453125 49.46484375 C-23.46375 48.96984375 -24.474375 48.47484375 -25.515625 47.96484375 C-31.73214716 44.38372348 -36.83618863 38.70296399 -39.015625 31.796875 C-40.41562652 24.33436691 -40.6307477 16.76695081 -36.65625 10.10546875 C-27.33868699 -2.60029899 -14.52575216 -5.89846295 0 0 Z " fill="#57A3A3" transform="translate(67.453125,13.53515625)"/>
<path d="M0 0 C0.33 0 0.66 0 1 0 C2.05481371 5.86804131 3.02876137 11.67274375 3.4375 17.625 C3.8065325 22.08520319 4.72914682 26.02260169 6.11328125 30.26953125 C7.15958967 33.49142369 8.08010156 36.73982353 9 40 C9.34417969 41.19753906 9.68835937 42.39507812 10.04296875 43.62890625 C10.60560489 45.61076334 11.15562582 47.59641573 11.67578125 49.58984375 C18.46336213 74.61644564 34.70522355 97.30146439 51.63964844 116.45605469 C52.857367 117.83811718 54.05871822 119.23456069 55.2578125 120.6328125 C59.51117534 125.55336952 64.01041851 129.83766151 69 134 C69.87269531 134.76054687 70.74539062 135.52109375 71.64453125 136.3046875 C86.70038424 149.24425594 105.86071147 163.25821344 125 169 C125 169.33 125 169.66 125 170 C83.42 170 41.84 170 -1 170 C-1.04030303 127.6594235 -1.04030303 127.6594235 -1.04882812 109.97460938 C-1.05477161 97.74307844 -1.06177464 85.51155437 -1.07543945 73.2800293 C-1.08538485 64.37357212 -1.09185308 55.46712049 -1.09408849 46.56065792 C-1.09539585 41.84171197 -1.09848324 37.1227819 -1.10573006 32.40384102 C-1.11248801 27.96753861 -1.11461742 23.5312587 -1.11310768 19.09495163 C-1.11338411 17.46184988 -1.11539057 15.82874742 -1.11920547 14.1956501 C-1.12413922 11.9757879 -1.12299949 9.75601204 -1.12025452 7.53614807 C-1.12117631 6.29080575 -1.1220981 5.04546343 -1.12304783 3.76238346 C-1 1 -1 1 0 0 Z " fill="#FBFDF9" transform="translate(1,120)"/>
<path d="M0 0 C-2.61622796 1.74415198 -4.20310562 2.45897171 -7.125 3.3125 C-12.13648284 4.90893296 -16.50007731 7.30855688 -21 10 C-21 10.66 -21 11.32 -21 12 C-18.81332022 13.99730562 -16.62668544 15.84956051 -14.3125 17.6875 C-13.68666016 18.21150391 -13.06082031 18.73550781 -12.41601562 19.27539062 C-8.84987801 22.21131745 -8.84987801 22.21131745 -4.4609375 23.046875 C-1.31334578 21.70789947 1.67541499 20.18491085 4.6875 18.5625 C17.77722144 11.82631881 33.81881298 10.50895361 48 15 C58.50747888 19.35962478 66.0897305 26.0897305 74 34 C74 33.34 74 32.68 74 32 C74.66 32 75.32 32 76 32 C76 33.98 76 35.96 76 38 C74.02 38.99 72.04 39.98 70 41 C69.45472656 40.34773438 68.90945312 39.69546875 68.34765625 39.0234375 C63.40289804 33.29258953 58.70459536 28.57578419 52 25 C51.2265625 24.5875 50.453125 24.175 49.65625 23.75 C40.82026306 19.82289469 31.45476727 20.64728329 22 21 C22.58370361 21.11174561 23.16740723 21.22349121 23.76879883 21.33862305 C34.01139795 23.43219305 43.81323008 28.19488248 50.03125 36.81640625 C61.30983047 54.12248896 61.02500331 73.21080719 56.96850586 93.03491211 C51.73518036 116.14894581 41.85720514 136.83218791 28 156 C26.68 155.01 25.36 154.02 24 153 C23.01 153.99 22.02 154.98 21 156 C20.34 155.67 19.68 155.34 19 155 C19.65194336 154.32493408 20.30388672 153.64986816 20.97558594 152.9543457 C23.50908847 149.25705746 23.46383654 147.17806983 23.390625 142.73046875 C23.38213531 141.70896477 23.38213531 141.70896477 23.37347412 140.66682434 C23.35120481 138.50631355 23.30103318 136.34750354 23.25 134.1875 C23.22992247 132.71682095 23.21167389 131.24611571 23.1953125 129.77539062 C23.15137326 126.1830475 23.08241456 122.59168994 23 119 C22.48050781 119.62648438 21.96101563 120.25296875 21.42578125 120.8984375 C20.72839844 121.71570313 20.03101563 122.53296875 19.3125 123.375 C18.62800781 124.18710938 17.94351563 124.99921875 17.23828125 125.8359375 C14.87345372 128.12235015 13.06255619 128.9158651 10 130 C9.13375 130.721875 8.2675 131.44375 7.375 132.1875 C6.59125 132.785625 5.8075 133.38375 5 134 C4.01 133.67 3.02 133.34 2 133 C1.75507813 133.56203125 1.51015625 134.1240625 1.2578125 134.703125 C-0.22926539 137.41865854 -2.04062782 139.46391438 -4.125 141.75 C-5.21167969 142.94882812 -5.21167969 142.94882812 -6.3203125 144.171875 C-6.87460938 144.77515625 -7.42890625 145.3784375 -8 146 C-8.66 145.67 -9.32 145.34 -10 145 C-3.38711543 137.33436873 3.22895547 129.67903005 10.03515625 122.18359375 C11.82849467 120.19059936 13.57298566 118.16486214 15.3125 116.125 C23.03198005 107.27452636 31.5712728 98.81863826 40.8203125 91.57421875 C42.25991215 90.43927856 43.63741058 89.22633048 45 88 C45 87.01 45 86.02 45 85 C35.39943484 86.62549251 28.13507835 92.17249262 20.76171875 98.20703125 C17.80450205 100.12692159 16.44275531 100.42015411 13 100 C12.67 100.66 12.34 101.32 12 102 C11.01 101.34 10.02 100.68 9 100 C10.65 98.02 12.3 96.04 14 94 C12.8966898 92.41606974 11.79231456 90.83288132 10.6875 89.25 C10.07261719 88.36828125 9.45773438 87.4865625 8.82421875 86.578125 C8.22222656 85.72734375 7.62023437 84.8765625 7 84 C6.5875 83.2471875 6.175 82.494375 5.75 81.71875 C3.03451357 79.0517544 -0.07747794 79.32415545 -3.6875 79.25 C-4.38939453 79.22035156 -5.09128906 79.19070312 -5.81445312 79.16015625 C-7.54235424 79.08962967 -9.2711832 79.04252932 -11 79 C-9.29220792 75.20387521 -6.92488428 71.92260392 -4.5 68.5625 C-4.06510254 67.9550293 -3.63020508 67.34755859 -3.18212891 66.72167969 C0.40372822 61.74596542 4.12569139 56.8819576 7.95117188 52.08813477 C10.29781205 49.37347382 10.29781205 49.37347382 11 46 C9.07520546 44.3768974 7.14718976 42.86810242 5.125 41.375 C3.91865171 40.46696777 2.71292795 39.55810529 1.5078125 38.6484375 C0.9087207 38.19823242 0.30962891 37.74802734 -0.30761719 37.28417969 C-2.57314677 35.56509636 -4.78864959 33.78805561 -7 32 C-12.9215348 27.23150333 -18.96153393 22.61876402 -25 18 C-24.01 16.515 -24.01 16.515 -23 15 C-23.66 14.01 -24.32 13.02 -25 12 C-24.625 9.8125 -24.625 9.8125 -24 8 C-23.01 8 -22.02 8 -21 8 C-21 7.34 -21 6.68 -21 6 C-19.68 6 -18.36 6 -17 6 C-17 5.34 -17 4.68 -17 4 C-11.02667877 0.5246131 -6.88490225 -0.57374185 0 0 Z " fill="#F8FAF7" transform="translate(174,55)"/>
<path d="M0 0 C1.04220703 0.00547852 2.08441406 0.01095703 3.15820312 0.01660156 C12.52046877 0.26784065 19.97948222 2.51858499 28.3125 6.625 C29.22 7.05039063 30.1275 7.47578125 31.0625 7.9140625 C32.83625286 8.77014461 34.58070198 9.68694274 36.3125 10.625 C36.3125 11.615 36.3125 12.605 36.3125 13.625 C37.3025 14.12 37.3025 14.12 38.3125 14.625 C38.3125 15.615 38.3125 16.605 38.3125 17.625 C37.6525 17.625 36.9925 17.625 36.3125 17.625 C36.21122803 18.19935791 36.10995605 18.77371582 36.00561523 19.36547852 C35.1838439 22.04441253 33.98483548 23.6036481 32.22265625 25.77734375 C31.60326172 26.55400391 30.98386719 27.33066406 30.34570312 28.13085938 C29.37020508 29.33452148 29.37020508 29.33452148 28.375 30.5625 C27.08950059 32.15046986 25.80935653 33.74279313 24.53515625 35.33984375 C23.68062866 36.39353149 23.68062866 36.39353149 22.80883789 37.46850586 C21.21374252 39.76732743 20.25244461 41.99769534 19.3125 44.625 C20.6325 46.275 21.9525 47.925 23.3125 49.625 C22.178125 49.56957031 21.04375 49.51414063 19.875 49.45703125 C11.30010006 49.16717221 11.30010006 49.16717221 3.75390625 52.578125 C1.65804861 55.48879631 -0.00640747 58.45555167 -1.6875 61.625 C-2.99792205 63.77313244 -4.34255408 65.89721729 -5.69165039 68.02124023 C-7.0115353 70.10696397 -8.29975189 72.2097983 -9.5859375 74.31640625 C-11.6875 77.625 -11.6875 77.625 -13.6875 79.625 C-13.90907886 82.44334738 -14.01283249 85.17103958 -14.03125 87.9921875 C-14.0458728 88.82332062 -14.06049561 89.65445374 -14.07556152 90.51077271 C-14.12215255 93.17379948 -14.15629193 95.83675113 -14.1875 98.5 C-14.22864908 101.99767186 -14.28235928 105.49481896 -14.34375 108.9921875 C-14.3490271 109.79647186 -14.3543042 110.60075623 -14.35974121 111.42941284 C-14.42830692 115.28355734 -14.49939402 118.35921906 -16.6875 121.625 C-18.6875 120.25 -18.6875 120.25 -20.6875 118.625 C-20.6875 117.965 -20.6875 117.305 -20.6875 116.625 C-21.83412109 116.27888672 -21.83412109 116.27888672 -23.00390625 115.92578125 C-26.2951524 114.33046106 -26.99230673 113.04475944 -28.625 109.8125 C-29.12902344 108.81476563 -29.63304688 107.81703125 -30.15234375 106.7890625 C-30.65894531 105.74492187 -31.16554688 104.70078125 -31.6875 103.625 C-32.18378906 102.66335937 -32.68007813 101.70171875 -33.19140625 100.7109375 C-43.25967474 80.36409726 -50.53507306 53.74870224 -44 31.3125 C-43.28359712 29.39543585 -42.51691621 27.49594543 -41.6875 25.625 C-41.14416016 24.3875 -41.14416016 24.3875 -40.58984375 23.125 C-35.18484998 12.27836844 -25.96380025 5.49193151 -14.75268555 1.49804688 C-9.82403888 0.0942364 -5.09976595 -0.05481833 0 0 Z " fill="#FBFCF8" transform="translate(73.6875,84.375)"/>
<path d="M0 0 C5.11648046 1.56062531 8.61223775 4.74084029 12.625 8.125 C17.24335943 11.95492302 21.85446634 15.71209928 26.75 19.1875 C31.88696018 22.83785504 36.67059852 26.82000874 41.46875 30.8984375 C44.00611016 33.07970388 44.00611016 33.07970388 47 35 C45.46233473 39.86160038 42.64941745 43.15635235 39.4375 47 C33.89664466 53.76142277 28.85435628 60.73072406 24 68 C25.03640625 67.94199219 26.0728125 67.88398438 27.140625 67.82421875 C28.51037156 67.77730962 29.88016692 67.73181068 31.25 67.6875 C31.93191406 67.64560547 32.61382812 67.60371094 33.31640625 67.56054688 C35.328125 67.51171875 35.328125 67.51171875 39 68 C41.30859375 70.265625 41.30859375 70.265625 43 73 C43.50144531 73.69222656 44.00289063 74.38445312 44.51953125 75.09765625 C44.94621094 75.74605469 45.37289062 76.39445312 45.8125 77.0625 C46.25207031 77.71347656 46.69164062 78.36445313 47.14453125 79.03515625 C48 81 48 81 47.8203125 83.07421875 C46.38815976 86.4363678 43.91478995 87.85852167 41 90 C40.34 90 39.68 90 39 90 C38.21583527 88.46539806 37.43703238 86.92773477 36.69042969 85.37451172 C35.06172485 82.12809538 33.4588669 79.72963498 31 77 C26.13616584 75.55604923 21.86438768 75.5502687 17 77 C14.56759356 79.42813727 14.56759356 79.42813727 13 82 C13.63808594 82.06058594 14.27617187 82.12117188 14.93359375 82.18359375 C15.75988281 82.26738281 16.58617187 82.35117188 17.4375 82.4375 C18.67306641 82.55931641 18.67306641 82.55931641 19.93359375 82.68359375 C22 83 22 83 23 84 C23 85.65 23 87.3 23 89 C1.22 89 -20.56 89 -43 89 C-43.33 88.01 -43.66 87.02 -44 86 C-42 83 -42 83 -40.02880859 82.56762695 C-38.8505249 82.52835083 -38.8505249 82.52835083 -37.6484375 82.48828125 C-36.79765625 82.45283203 -35.946875 82.41738281 -35.0703125 82.38085938 C-34.18085937 82.35830078 -33.29140625 82.33574219 -32.375 82.3125 C-31.02921875 82.26125977 -31.02921875 82.26125977 -29.65625 82.20898438 C-27.43762462 82.12637598 -25.2194006 82.05727281 -23 82 C-28.98868535 76.73365258 -33.60794938 76.23334643 -41.4375 76.1875 C-42.45521484 76.16236328 -43.47292969 76.13722656 -44.52148438 76.11132812 C-47.01471224 76.05280165 -49.50619855 76.01627016 -52 76 C-52.66 77.65 -53.32 79.3 -54 81 C-56.97 85.95 -59.94 90.9 -63 96 C-31.65 96 -0.3 96 32 96 C29.24274689 99.44656639 27.13056321 101.93326876 23.875 104.6875 C21.84411909 106.4156647 19.88645821 108.11354179 18 110 C15.34955896 110.18795611 12.80449186 110.25183861 10.15380859 110.22705078 C9.34397018 110.22734283 8.53413177 110.22763489 7.69975281 110.22793579 C5.01587304 110.2265395 2.33226893 110.21096435 -0.3515625 110.1953125 C-2.20958301 110.19158343 -4.06760548 110.18873596 -5.92562866 110.18673706 C-10.82146614 110.17909224 -15.71718539 110.15943649 -20.61297607 110.1373291 C-26.48415687 110.11329663 -32.35537714 110.10409373 -38.22659302 110.09242249 C-47.1511443 110.07301256 -56.07543605 110.03469593 -65 110 C-65 124.85 -65 139.7 -65 155 C-72.10808641 149.31353087 -78.55110583 143.69393215 -79.88427734 134.32958984 C-80.28041199 129.87445674 -80.31049703 125.44405126 -80.22827148 120.97436523 C-80.18765895 118.19836498 -80.24826102 115.43726628 -80.31835938 112.66210938 C-80.39252839 100.57019571 -77.95721969 92.95769813 -70.28225708 83.6157074 C-68.1540407 80.9340494 -66.35251705 78.06508681 -64.5 75.1875 C-62.76147555 72.54765038 -61.23301364 70.23301364 -59 68 C-56.26565038 67.6936141 -53.61720179 67.4886664 -50.875 67.375 C-50.12089844 67.33632812 -49.36679688 67.29765625 -48.58984375 67.2578125 C-46.72696816 67.16348969 -44.86351745 67.08065338 -43 67 C-44.32 65.68 -45.64 64.36 -47 63 C-45.43769442 57.98519198 -42.41277739 54.48160091 -39.125 50.5 C-38.59519531 49.84902344 -38.06539062 49.19804688 -37.51953125 48.52734375 C-36.48967774 47.26238721 -35.45753952 45.99928646 -34.42285156 44.73828125 C-32.59651338 42.50706508 -30.79591616 40.25574011 -29 38 C-24.125 39.75 -24.125 39.75 -23 42 C-23.38857178 42.49927002 -23.77714355 42.99854004 -24.17749023 43.51293945 C-25.93509877 45.77617942 -27.68635158 48.04425854 -29.4375 50.3125 C-30.04916016 51.09818359 -30.66082031 51.88386719 -31.29101562 52.69335938 C-31.87431641 53.45068359 -32.45761719 54.20800781 -33.05859375 54.98828125 C-33.86768188 56.03302612 -33.86768188 56.03302612 -34.69311523 57.09887695 C-36.1769764 59.06955526 -36.1769764 59.06955526 -37 62 C-32.91983304 65.2312705 -32.91983304 65.2312705 -28.81811523 68.43505859 C-25.78468029 70.78739513 -22.79552554 73.14865158 -19.92578125 75.69921875 C-12.0082847 82.40694775 -6.12488577 83.34579528 4 83 C4.22171875 82.31164062 4.4434375 81.62328125 4.671875 80.9140625 C6.33627066 77.26218261 8.69817967 74.42848128 11.25 71.375 C16.83013467 64.56192457 22.09183587 57.55116589 27.27832031 50.43505859 C27.83616211 49.67016113 28.39400391 48.90526367 28.96875 48.1171875 C29.48953125 47.39756836 30.0103125 46.67794922 30.546875 45.93652344 C31.77788467 44.2960045 33.11359497 42.73487154 34.46875 41.1953125 C36.1645187 39.16971015 36.1645187 39.16971015 36.125 36.98828125 C34.40672626 33.95147106 31.77611088 32.19121893 29 30.1875 C27.80713037 29.29969585 26.61442257 28.41167422 25.421875 27.5234375 C24.83599609 27.09256836 24.25011719 26.66169922 23.64648438 26.21777344 C21.48526034 24.61928805 19.36573275 22.97057425 17.25 21.3125 C16.55519531 20.77109375 15.86039062 20.2296875 15.14453125 19.671875 C14.43683594 19.12015625 13.72914063 18.5684375 13 18 C11.31263915 16.68732111 9.62514132 15.37481829 7.9375 14.0625 C5.96875 12.53125 5.96875 12.53125 4 11 C3.4225 11.33 2.845 11.66 2.25 12 C0 13 0 13 -4 13 C-4.99 12.34 -5.98 11.68 -7 11 C-5.22054913 6.95579349 -2.60470327 3.53921513 0 0 Z " fill="#233D5D" transform="translate(139,66)"/>
<path d="M0 0 C22.8085929 -1.0417078 22.8085929 -1.0417078 33 5 C34.22396484 5.70382813 34.22396484 5.70382813 35.47265625 6.421875 C46.82657271 13.47305517 53.2804724 23.00579228 57.45703125 35.63671875 C63.41691248 61.57720898 55.79299369 88.42122228 45 112 C44.67773438 112.71333496 44.35546875 113.42666992 44.0234375 114.16162109 C31.11518914 142.3721781 9.26328546 171.04886653 -18.21728516 186.02490234 C-19.77960649 186.8794506 -21.31965474 187.77446222 -22.85546875 188.67578125 C-32.6935222 193.71547674 -47.35973797 194.02044178 -58 191 C-58 190.34 -58 189.68 -58 189 C-56.51113281 188.30777344 -56.51113281 188.30777344 -54.9921875 187.6015625 C-41.12148796 181.00408213 -29.51287609 172.57646931 -17.9375 162.54296875 C-15.92082371 160.79714925 -13.89543551 159.08985778 -11.83203125 157.40234375 C-8.11148797 154.24629669 -5.1238473 150.73197332 -2 147 C-1.3090625 146.19691406 -0.618125 145.39382812 0.09375 144.56640625 C24.48682592 115.66404693 40.52562977 78.70760095 38.22314453 40.38818359 C37.24278412 29.89596748 32.70075061 19.58223188 25.12109375 12.16015625 C17.64792732 6.22691502 9.34159109 2.65737906 0 1 C0 0.67 0 0.34 0 0 Z " fill="#233F61" transform="translate(194,75)"/>
<path d="M0 0 C-0.40391559 4.42235782 -3.41512416 6.57192784 -6.5625 9.3125 C-7.3822229 10.04533203 -7.3822229 10.04533203 -8.21850586 10.79296875 C-11.13792556 13.39527536 -14.09798401 15.94928104 -17.0625 18.5 C-24.98370282 25.38154495 -32.21948301 33.0042376 -39 41 C-39.87803986 42.015073 -40.75702886 43.02932538 -41.63671875 44.04296875 C-52.56391758 56.66319088 -63.10221846 69.5543375 -73 83 C-74.9901845 85.67416199 -76.9913893 88.33965924 -79 91 C-79.88171875 92.17949219 -79.88171875 92.17949219 -80.78125 93.3828125 C-81.3896875 94.18460937 -81.998125 94.98640625 -82.625 95.8125 C-83.17414063 96.54082031 -83.72328125 97.26914063 -84.2890625 98.01953125 C-86.14467695 100.16746852 -87.47804779 101.66823225 -90 103 C-94.54209217 103.07275663 -96.40857247 102.54477972 -99.7734375 99.4453125 C-100.65939867 98.35351185 -101.5258984 97.24570617 -102.375 96.125 C-102.84268799 95.54073242 -103.31037598 94.95646484 -103.79223633 94.35449219 C-104.749843 93.15614278 -105.69985202 91.9516818 -106.64208984 90.74121094 C-108.61593483 88.21020367 -110.6522142 85.73171291 -112.6875 83.25 C-113.75677734 81.92548828 -113.75677734 81.92548828 -114.84765625 80.57421875 C-117.64085696 77.23353042 -120.62358666 74.08885276 -123.6640625 70.97265625 C-125 69 -125 69 -124.94140625 66.98046875 C-123.76049681 64.49614888 -122.36486392 63.07953584 -120.3125 61.25 C-119.31669922 60.32960938 -119.31669922 60.32960938 -118.30078125 59.390625 C-115.09885881 57.45533741 -113.69631923 57.23740987 -110 58 C-107.08246817 60.16537055 -104.66423652 62.72670417 -102.1875 65.375 C-101.1675293 66.42300781 -101.1675293 66.42300781 -100.12695312 67.4921875 C-95.19907318 72.60185365 -95.19907318 72.60185365 -94 75 C-90.37598787 73.50153206 -88.3682297 71.44211507 -85.8125 68.5 C-85.01199219 67.59121094 -84.21148437 66.68242187 -83.38671875 65.74609375 C-81.95048875 64.09360654 -80.51526901 62.44023937 -79.08203125 60.78515625 C-68.50660539 48.77434325 -57.21880441 36.76303168 -44.51953125 26.984375 C-42.35183584 25.27710481 -40.30529859 23.50981596 -38.24609375 21.67578125 C-9.53276291 -3.591413 -9.53276291 -3.591413 0 0 Z " fill="#223E61" transform="translate(220,140)"/>
<path d="M0 0 C1.41877441 0.01099731 1.41877441 0.01099731 2.86621094 0.0222168 C9.62530853 0.45041898 14.1265318 2.50669286 18.9375 7.3125 C18.9375 7.6425 18.9375 7.9725 18.9375 8.3125 C9.0375 8.8075 9.0375 8.8075 -1.0625 9.3125 C-1.3925 10.6325 -1.7225 11.9525 -2.0625 13.3125 C30.6075 13.8075 30.6075 13.8075 63.9375 14.3125 C63.4425 11.8375 63.4425 11.8375 62.9375 9.3125 C57.9875 8.8175 57.9875 8.8175 52.9375 8.3125 C56.8125 2.4375 56.8125 2.4375 57.9375 1.3125 C62.73462977 0.57299608 67.16081564 0.39086851 71.9375 1.3125 C76.2749775 5.01353742 78.82944459 9.73311511 79.9375 15.3125 C81.23065061 14.35617001 82.52196853 13.39736149 83.8125 12.4375 C84.53179687 11.90382812 85.25109375 11.37015625 85.9921875 10.8203125 C88.02002632 9.31376838 88.02002632 9.31376838 89.9375 7.3125 C89.9375 8.3025 89.9375 9.2925 89.9375 10.3125 C88.6175 10.9725 87.2975 11.6325 85.9375 12.3125 C86.2675 12.9725 86.5975 13.6325 86.9375 14.3125 C88.5875 14.3125 90.2375 14.3125 91.9375 14.3125 C88.20050705 18.15485929 84.27972105 21.66656462 80.1875 25.125 C74.70832425 29.78597911 69.28611427 34.50157711 63.9375 39.3125 C62.4525 38.3225 62.4525 38.3225 60.9375 37.3125 C58.22121833 37.09941022 55.60401495 37.00123157 52.88598633 36.99365234 C52.06624832 36.98360672 51.24651031 36.9735611 50.40193176 36.96321106 C47.69113876 36.93230868 44.98044483 36.9153244 42.26953125 36.8984375 C40.39050947 36.87973152 38.51149614 36.86015854 36.63249207 36.8397522 C31.68581111 36.78836476 26.73910289 36.74877444 21.79229736 36.71160889 C15.857576 36.66457879 9.92299057 36.60295268 3.98838043 36.54376221 C-5.02852505 36.45546937 -14.04540341 36.3857627 -23.0625 36.3125 C-23.0625 51.4925 -23.0625 66.6725 -23.0625 82.3125 C-24.7125 81.9825 -26.3625 81.6525 -28.0625 81.3125 C-27.546875 82.26125 -27.03125 83.21 -26.5 84.1875 C-26.025625 85.21875 -25.55125 86.25 -25.0625 87.3125 C-25.3925 87.9725 -25.7225 88.6325 -26.0625 89.3125 C-35.20318322 80.68598021 -42.26845754 70.82881041 -49.0625 60.3125 C-48.0725 59.8175 -48.0725 59.8175 -47.0625 59.3125 C-46.4025 59.6425 -45.7425 59.9725 -45.0625 60.3125 C-45.0625 60.9725 -45.0625 61.6325 -45.0625 62.3125 C-43.7425 62.9725 -42.4225 63.6325 -41.0625 64.3125 C-39.77475554 60.44926662 -39.82867207 56.73759463 -39.74609375 52.70703125 C-39.7149221 51.44822395 -39.7149221 51.44822395 -39.68312073 50.16398621 C-39.61775982 47.48440706 -39.55880286 44.80473031 -39.5 42.125 C-39.45680198 40.30793263 -39.41318727 38.49087512 -39.36914062 36.67382812 C-39.2620922 32.22015201 -39.16078681 27.76637774 -39.0625 23.3125 C-38.7325 23.3125 -38.4025 23.3125 -38.0625 23.3125 C-38.06886475 24.50738037 -38.07522949 25.70226074 -38.08178711 26.93334961 C-38.09630592 31.40113742 -38.06471907 35.86765258 -38.01977539 40.33520508 C-38.00670142 42.26224417 -38.0058408 44.18940888 -38.01782227 46.11645508 C-38.55388433 58.63155485 -38.55388433 58.63155485 -33.81640625 69.75390625 C-32.58928039 70.96509761 -31.33566548 72.14979966 -30.0625 73.3125 C-28.4125 75.2925 -26.7625 77.2725 -25.0625 79.3125 C-24.7325 64.7925 -24.4025 50.2725 -24.0625 35.3125 C-15.214375 35.3434375 -15.214375 35.3434375 -6.1875 35.375 C-2.44128434 35.37026935 1.30463276 35.36318539 5.05078125 35.34765625 C10.99166777 35.32325228 16.93169046 35.30736931 22.87255859 35.34326172 C27.66469236 35.37166739 32.45531854 35.3609965 37.24737549 35.32369995 C39.07171319 35.31627704 40.89616386 35.32272412 42.72039795 35.34353638 C52.61402968 35.74082742 52.61402968 35.74082742 61.71044922 32.60546875 C63.69493927 30.61405123 65.25902194 28.55985208 66.9375 26.3125 C68.5875 24.9925 70.2375 23.6725 71.9375 22.3125 C25.4075 21.8175 25.4075 21.8175 -22.0625 21.3125 C-21.4025 19.6625 -20.7425 18.0125 -20.0625 16.3125 C-19.83014648 15.67078857 -19.59779297 15.02907715 -19.35839844 14.36791992 C-15.47914685 4.055898 -11.33854228 -0.0927086 0 0 Z " fill="#F1F6F7" transform="translate(98.0625,140.6875)"/>
<path d="M0 0 C8.41527902 6.46091094 14.96914939 14.29583714 19.234375 24.0703125 C18.739375 25.0603125 18.739375 25.0603125 18.234375 26.0703125 C17.68910156 25.41804688 17.14382812 24.76578125 16.58203125 24.09375 C11.61295566 18.3347188 6.84096466 13.84211773 0.234375 10.0703125 C-0.41144531 9.68101563 -1.05726563 9.29171875 -1.72265625 8.890625 C-13.68798047 2.21343796 -29.80783592 2.34562219 -42.70703125 5.93359375 C-47.6192055 7.75919108 -52.15532493 10.20514624 -56.734375 12.7421875 C-59.765625 14.0703125 -59.765625 14.0703125 -61.859375 14.015625 C-64.46792804 12.72203927 -66.52870523 11.05713902 -68.765625 9.1953125 C-71.72265104 6.75215989 -74.67608623 4.34455631 -77.765625 2.0703125 C-75.85636309 -3.02105259 -72.0601571 -4.26385935 -67.359375 -6.46875 C-44.9016191 -15.59831599 -20.16351476 -14.06889307 0 0 Z " fill="#EB9B46" transform="translate(229.765625,64.9296875)"/>
<path d="M0 0 C2.00530786 31.37535533 2.00530786 31.37535533 -3.7878418 38.75317383 C-6.06525138 41.08236758 -8.38375472 43.0501211 -11 45 C-12.01295668 45.98687323 -13.0160057 46.98424648 -14 48 C-16.36979785 14.69943239 -16.36979785 14.69943239 -9.39916992 6.60205078 C-2.37807464 0 -2.37807464 0 0 0 Z " fill="#223F5F" transform="translate(198,173)"/>
<path d="M0 0 C0.33 0 0.66 0 1 0 C0.99363525 1.19488037 0.98727051 2.38976074 0.98071289 3.62084961 C0.96619408 8.08863742 0.99778093 12.55515258 1.04272461 17.02270508 C1.05579858 18.94974417 1.0566592 20.87690888 1.04467773 22.80395508 C0.50861567 35.31905485 0.50861567 35.31905485 5.24609375 46.44140625 C6.47321961 47.65259761 7.72683452 48.83729966 9 50 C10.65 51.98 12.3 53.96 14 56 C14.33 41.48 14.66 26.96 15 12 C42.06 12 69.12 12 97 12 C97 12.33 97 12.66 97 13 C70.27 13 43.54 13 16 13 C16 28.18 16 43.36 16 59 C14.35 58.67 12.7 58.34 11 58 C11.515625 58.94875 12.03125 59.8975 12.5625 60.875 C13.036875 61.90625 13.51125 62.9375 14 64 C13.67 64.66 13.34 65.32 13 66 C3.85931678 57.37348021 -3.20595754 47.51631041 -10 37 C-9.01 36.505 -9.01 36.505 -8 36 C-7.34 36.33 -6.68 36.66 -6 37 C-6 37.66 -6 38.32 -6 39 C-4.68 39.66 -3.36 40.32 -2 41 C-0.71225554 37.13676662 -0.76617207 33.42509463 -0.68359375 29.39453125 C-0.6524221 28.13572395 -0.6524221 28.13572395 -0.62062073 26.85148621 C-0.55525982 24.17190706 -0.49630286 21.49223031 -0.4375 18.8125 C-0.39430198 16.99543263 -0.35068727 15.17837512 -0.30664062 13.36132812 C-0.1995922 8.90765201 -0.09828681 4.45387774 0 0 Z " fill="#D0DEE5" transform="translate(59,164)"/>
<path d="M0 0 C-1.48851293 4.02159634 -3.59087892 5.16313882 -7.3125 7.125 C-13.428661 10.53025389 -18.80875077 14.52013163 -24.28515625 18.86328125 C-27 21 -27 21 -30 23 C-32.6875 22.625 -32.6875 22.625 -35 22 C-39.59225513 9.51480638 -39.59225513 9.51480638 -39 3 C-36.625 2.375 -36.625 2.375 -34 2 C-31.3144406 4.6855594 -30.93950026 7.37621328 -30 11 C-26.26403688 9.45794231 -22.63435065 7.84993527 -19.0625 5.95703125 C-18.39476562 5.60576172 -17.72703125 5.25449219 -17.0390625 4.89257812 C-15.6748095 4.1699422 -14.31540896 3.43807329 -12.9609375 2.69726562 C-8.36584949 0.30657794 -5.17861317 -0.41132214 0 0 Z " fill="#203B57" transform="translate(162,109)"/>
<path d="M0 0 C4.61521417 3.7002522 8.82120863 7.82120863 13 12 C13 11.34 13 10.68 13 10 C13.66 10 14.32 10 15 10 C15 11.98 15 13.96 15 16 C13.02 16.99 11.04 17.98 9 19 C8.45472656 18.34773438 7.90945312 17.69546875 7.34765625 17.0234375 C-1.56849626 6.68984536 -11.18724714 -0.41359486 -25.1484375 -1.46484375 C-30.09740853 -1.75348628 -35.04385049 -1.90291578 -40 -2 C-40 -2.33 -40 -2.66 -40 -3 C-33.73 -3 -27.46 -3 -21 -3 C-20.67 -3.99 -20.34 -4.98 -20 -6 C-28.25 -6.33 -36.5 -6.66 -45 -7 C-45 -7.33 -45 -7.66 -45 -8 C-28.92768024 -11.07663089 -13.6761954 -9.17680804 0 0 Z " fill="#EEF3F0" transform="translate(235,77)"/>
<path d="M0 0 C0.0825 1.11375 0.165 2.2275 0.25 3.375 C0.57873787 7.05753944 0.57873787 7.05753944 3.0625 8.4375 C3.701875 8.623125 4.34125 8.80875 5 9 C5 9.99 5 10.98 5 12 C6.258125 12.165 7.51625 12.33 8.8125 12.5 C9.52019531 12.5928125 10.22789062 12.685625 10.95703125 12.78125 C13.15471706 13.053233 13.15471706 13.053233 16 13 C16 12.34 16 11.68 16 11 C17.32 11 18.64 11 20 11 C20 10.34 20 9.68 20 9 C37.9118551 3.31369679 54.63766843 1.16878937 72 10 C72.66 9.34 73.32 8.68 74 8 C73.01 7.67 72.02 7.34 71 7 C71 6.01 71 5.02 71 4 C80.40973938 8.44861317 86.70454242 16.5996362 90.19921875 26.34375 C90.46347656 27.2203125 90.72773438 28.096875 91 29 C90.38125 28.360625 89.7625 27.72125 89.125 27.0625 C88.08645028 26.03849579 87.04418505 25.0182572 86 24 C85.29488281 23.29875 84.58976562 22.5975 83.86328125 21.875 C71.41048217 10.0037326 58.60296057 6.45040072 41.6953125 6.7578125 C31.62571041 7.41776528 23.71691784 10.85954552 15.03125 15.671875 C12 17 12 17 9.90625 16.9453125 C7.29769696 15.65172677 5.23691977 13.98682652 3 12.125 C0.04297396 9.68184739 -2.91046123 7.27424381 -6 5 C-3.74193548 0 -3.74193548 0 0 0 Z " fill="#D89E5C" transform="translate(158,62)"/>
<path d="M0 0 C-2.61622796 1.74415198 -4.20310562 2.45897171 -7.125 3.3125 C-12.13648284 4.90893296 -16.50007731 7.30855688 -21 10 C-21 10.66 -21 11.32 -21 12 C-18.81332022 13.99730562 -16.62668544 15.84956051 -14.3125 17.6875 C-13.68666016 18.21150391 -13.06082031 18.73550781 -12.41601562 19.27539062 C-8.85840114 22.20262459 -8.85840114 22.20262459 -4.484375 23.05859375 C-0.55522328 21.38437973 3.18181474 19.41343949 6.91601562 17.3515625 C11.48853722 14.9392484 11.48853722 14.9392484 14.43359375 15.2890625 C14.95050781 15.52367188 15.46742188 15.75828125 16 16 C15.34 16 14.68 16 14 16 C13.505 17.485 13.505 17.485 13 19 C10.78027779 20.32007321 8.63640796 21.46095341 6.3125 22.5625 C5.69955078 22.86607422 5.08660156 23.16964844 4.45507812 23.48242188 C1.53677995 24.90288726 -1.28499078 26.08625152 -4.39453125 27.02734375 C-5.25433594 27.34832031 -6.11414063 27.66929688 -7 28 C-7.33 28.99 -7.66 29.98 -8 31 C-10.08617326 29.42029655 -12.16894154 27.83641716 -14.25 26.25 C-14.83652344 25.8065625 -15.42304688 25.363125 -16.02734375 24.90625 C-19.24377849 22.4487493 -22.21242594 19.95317252 -25 17 C-24.34 16.34 -23.68 15.68 -23 15 C-23.66 14.01 -24.32 13.02 -25 12 C-24.625 9.8125 -24.625 9.8125 -24 8 C-23.01 8 -22.02 8 -21 8 C-21 7.34 -21 6.68 -21 6 C-19.68 6 -18.36 6 -17 6 C-17 5.34 -17 4.68 -17 4 C-11.02667877 0.5246131 -6.88490225 -0.57374185 0 0 Z " fill="#FBF9F1" transform="translate(174,55)"/>
<path d="M0 0 C4.98012761 1.50912958 8.24259942 4.55661849 12 8 C11.34 8.66 10.68 9.32 10 10 C8.32457024 9.71395102 6.65614657 9.38218767 5 9 C4.67 9.33 4.34 9.66 4 10 C2.36527118 10.08700342 0.72685945 10.10701063 -0.91015625 10.09765625 C-1.89951172 10.09443359 -2.88886719 10.09121094 -3.90820312 10.08789062 C-4.94912109 10.07951172 -5.99003906 10.07113281 -7.0625 10.0625 C-8.10728516 10.05798828 -9.15207031 10.05347656 -10.22851562 10.04882812 C-12.8190666 10.03699913 -15.40950559 10.02051689 -18 10 C-18.33 10.99 -18.66 11.98 -19 13 C-21.79168241 12.21782019 -24.43472526 11.36347586 -27 10 C-28.1875 7.5 -28.1875 7.5 -28 5 C-26.47155867 3.01465384 -25.59421571 2.10645061 -23.09887695 1.65942383 C-22.40238037 1.67513428 -21.70588379 1.69084473 -20.98828125 1.70703125 C-20.23095703 1.71669922 -19.47363281 1.72636719 -18.69335938 1.73632812 C-17.90767578 1.76146484 -17.12199219 1.78660156 -16.3125 1.8125 C-15.11657227 1.83280273 -15.11657227 1.83280273 -13.89648438 1.85351562 C-11.93070033 1.88882911 -9.96526418 1.94263553 -8 2 C-8 2.66 -8 3.32 -8 4 C-8.99 4 -9.98 4 -11 4 C-11 5.32 -11 6.64 -11 8 C-9.54054712 7.91291331 -8.08234132 7.80473093 -6.625 7.6875 C-5.40683594 7.60048828 -5.40683594 7.60048828 -4.1640625 7.51171875 C-1.62078662 7.17009472 -1.62078662 7.17009472 0 4 C0 2.68 0 1.36 0 0 Z " fill="#1A3553" transform="translate(105,132)"/>
<path d="M0 0 C-3.57250174 1.94281851 -7.1471959 3.88153617 -10.72387695 5.81665039 C-11.93768695 6.4740838 -13.15091591 7.13259124 -14.36352539 7.79223633 C-16.11707982 8.74589849 -17.87297761 9.6952477 -19.62890625 10.64453125 C-20.68150635 11.21534424 -21.73410645 11.78615723 -22.81860352 12.37426758 C-33.34595504 17.75387266 -33.34595504 17.75387266 -39 17 C-41.375 15.5 -41.375 15.5 -43 14 C-42.11248047 14.05220703 -42.11248047 14.05220703 -41.20703125 14.10546875 C-36.07635998 14.281234 -33.34007307 13.93248181 -29 11 C-25.6875 10.3125 -25.6875 10.3125 -23 10 C-22.01879536 6.94736336 -22.01879536 5.05263664 -23 2 C-25.31 1.67 -27.62 1.34 -30 1 C-30 0.67 -30 0.34 -30 0 C-29.35450195 0.00523682 -28.70900391 0.01047363 -28.04394531 0.01586914 C-25.11264015 0.03668657 -22.18135057 0.04967534 -19.25 0.0625 C-18.23421875 0.07087891 -17.2184375 0.07925781 -16.171875 0.08789062 C-15.1921875 0.09111328 -14.2125 0.09433594 -13.203125 0.09765625 C-11.85202637 0.10551147 -11.85202637 0.10551147 -10.47363281 0.11352539 C-8.03979804 0.0926206 -8.03979804 0.0926206 -5.92480469 -0.56860352 C-3.63969648 -1.08075296 -2.20513969 -0.7087949 0 0 Z " fill="#5A9D9D" transform="translate(165,273)"/>
<path d="M0 0 C3.3804754 3.14230554 5.91908448 6.64289914 8.5 10.4375 C15.58150848 20.60083809 24.15597235 29.35697297 33 38 C31.515 38.495 31.515 38.495 30 39 C25.125 34.375 25.125 34.375 24 31 C23.34 30.67 22.68 30.34 22 30 C20 29 20 29 19 26 C18.34 26 17.68 26 17 26 C13.98364942 23.44067224 12.90873158 21.7647451 12 18 C11.01 17.67 10.02 17.34 9 17 C9 16.01 9 15.02 9 14 C8.38511719 13.92394531 7.77023438 13.84789062 7.13671875 13.76953125 C5 13 5 13 3.76953125 11.07421875 C3.45371094 10.28660156 3.13789062 9.49898437 2.8125 8.6875 C2.48894531 7.90761719 2.16539063 7.12773437 1.83203125 6.32421875 C1.08158116 4.22789105 0.49155473 2.16979208 0 0 Z " fill="#699F9F" transform="translate(48,200)"/>
<path d="M0 0 C-1.87547816 4.98682054 -5.63922173 6.43919111 -10.15625 8.8046875 C-13.79543836 10.33434635 -16.12835247 10.51621967 -20 10 C-20 9.34 -20 8.68 -20 8 C-20.66 7.67 -21.32 7.34 -22 7 C-19.65322019 5.81603901 -17.29938651 4.65311707 -14.9375 3.5 C-14.28072266 3.16613281 -13.62394531 2.83226563 -12.94726562 2.48828125 C-8.37149268 0.27928741 -5.07670782 -0.36969524 0 0 Z " fill="#2A415F" transform="translate(162,109)"/>
<path d="M0 0 C-2.61622796 1.74415198 -4.20310562 2.45897171 -7.125 3.3125 C-12.13648284 4.90893296 -16.50007731 7.30855688 -21 10 C-21 10.66 -21 11.32 -21 12 C-18.8664718 13.78770907 -16.73155942 15.46872824 -14.5 17.125 C-13.87996094 17.59292969 -13.25992188 18.06085938 -12.62109375 18.54296875 C-11.08497483 19.70096609 -9.54301941 20.85121357 -8 22 C-8.99 22.33 -9.98 22.66 -11 23 C-13.4375 21.75 -13.4375 21.75 -16 20 C-16.763125 19.484375 -17.52625 18.96875 -18.3125 18.4375 C-18.869375 17.963125 -19.42625 17.48875 -20 17 C-20 16.34 -20 15.68 -20 15 C-20.639375 14.87625 -21.27875 14.7525 -21.9375 14.625 C-22.618125 14.41875 -23.29875 14.2125 -24 14 C-25.24546405 11.50907189 -24.7767578 10.58919267 -24 8 C-23.01 8 -22.02 8 -21 8 C-21 7.34 -21 6.68 -21 6 C-19.68 6 -18.36 6 -17 6 C-17 5.34 -17 4.68 -17 4 C-11.02667877 0.5246131 -6.88490225 -0.57374185 0 0 Z " fill="#FCF2D8" transform="translate(174,55)"/>
<path d="M0 0 C3.94727588 -0.17942163 6.5980513 -0.09350689 10 2 C10 2.66 10 3.32 10 4 C10.639375 4.12375 11.27875 4.2475 11.9375 4.375 C12.618125 4.58125 13.29875 4.7875 14 5 C14.33 5.66 14.66 6.32 15 7 C15.99 7.33 16.98 7.66 18 8 C18.6875 10.0625 18.6875 10.0625 19 12 C19.61875 12.103125 20.2375 12.20625 20.875 12.3125 C23 13 23 13 25 16 C25 17.32 25 18.64 25 20 C25.99 20 26.98 20 28 20 C28.33 22.64 28.66 25.28 29 28 C27.37640958 25.88291705 25.83908896 23.75378673 24.37890625 21.51953125 C18.08516743 12.13983017 10.18597974 5.83607347 0 1 C0 0.67 0 0.34 0 0 Z " fill="#FDF4D9" transform="translate(219,59)"/>
<path d="M0 0 C0.33 0.99 0.66 1.98 1 3 C0.67 3.66 0.34 4.32 0 5 C1.32 5.33 2.64 5.66 4 6 C0.7 8.97 -2.6 11.94 -6 15 C-7.98 14.01 -9.96 13.02 -12 12 C-8.32167983 7.47384007 -4.58913637 3.60575001 0 0 Z " fill="#E6EFF4" transform="translate(168,165)"/>
<path d="M0 0 C4.875 1.75 4.875 1.75 6 4 C6.45052177 8.39258726 6.45052177 8.39258726 4.77734375 10.6484375 C2.47926324 12.39598883 1.16409955 12.31148259 -1.6875 12.1875 C-2.89986328 12.14689453 -2.89986328 12.14689453 -4.13671875 12.10546875 C-4.75160156 12.07066406 -5.36648437 12.03585938 -6 12 C-6 10.68 -6 9.36 -6 8 C-5.01 8 -4.02 8 -3 8 C-2.87625 7.236875 -2.7525 6.47375 -2.625 5.6875 C-2 3 -2 3 0 0 Z " fill="#214265" transform="translate(100,128)"/>
<path d="M0 0 C0.51949219 0.39832031 1.03898437 0.79664063 1.57421875 1.20703125 C5.27926842 4.02177323 8.93575065 6.71385974 13 9 C10.06427721 11.32525707 7.07145983 13.09008583 3.75 14.8125 C-1.20609635 17.46683885 -5.63195493 20.47051946 -10 24 C-10 22.68 -10 21.36 -10 20 C-9.34 20 -8.68 20 -8 20 C-8 19.34 -8 18.68 -8 18 C-5.09451118 15.95830515 -3.59857954 15 0 15 C0 14.34 0 13.68 0 13 C1.32 13 2.64 13 4 13 C4 12.34 4 11.68 4 11 C4.66 11 5.32 11 6 11 C4.95125002 8.37812506 4.35068687 7.20628639 1.875 5.75 C1.25625 5.5025 0.6375 5.255 0 5 C0 3.35 0 1.7 0 0 Z " fill="#DEF6F6" transform="translate(33,54)"/>
<path d="M0 0 C0.495 0.99 0.495 0.99 1 2 C-0.65 2.33 -2.3 2.66 -4 3 C-3.67 3.66 -3.34 4.32 -3 5 C-6.04842865 5.90901939 -8.59661636 6.06173367 -11.765625 5.87890625 C-12.65507812 5.83056641 -13.54453125 5.78222656 -14.4609375 5.73242188 C-15.38132813 5.67634766 -16.30171875 5.62027344 -17.25 5.5625 C-18.18585938 5.51029297 -19.12171875 5.45808594 -20.0859375 5.40429688 C-22.39098887 5.27493175 -24.69557289 5.13997966 -27 5 C-27 4.67 -27 4.34 -27 4 C-20.73 4 -14.46 4 -8 4 C-7.67 3.01 -7.34 2.02 -7 1 C-15.25 0.67 -23.5 0.34 -32 0 C-32 -0.33 -32 -0.66 -32 -1 C-21.8042633 -2.9517107 -9.98951399 -3.19822385 0 0 Z " fill="#FDEAC7" transform="translate(222,70)"/>
<path d="M0 0 C0.33 0 0.66 0 1 0 C1 6.93 1 13.86 1 21 C1.66 21 2.32 21 3 21 C3.33 20.34 3.66 19.68 4 19 C4.33 20.32 4.66 21.64 5 23 C5.66 22.34 6.32 21.68 7 21 C7.99 21.33 8.98 21.66 10 22 C8.52444734 23.83624331 7.04446569 25.6689285 5.5625 27.5 C4.32693359 29.03140625 4.32693359 29.03140625 3.06640625 30.59375 C2.38449219 31.3878125 1.70257813 32.181875 1 33 C0.67 33 0.34 33 0 33 C0 22.11 0 11.22 0 0 Z " fill="#152C4A" transform="translate(184,188)"/>
<path d="M0 0 C7.59250638 5.37030939 12.34160899 13.15172797 15 22 C14.38125 21.360625 13.7625 20.72125 13.125 20.0625 C9.62518785 16.55260193 5.90463624 13.28674448 2.20703125 9.98828125 C0.7713649 8.69491104 -0.6336281 7.3663719 -2 6 C-0.68 6 0.64 6 2 6 C2.33 5.34 2.66 4.68 3 4 C2.01 4 1.02 4 0 4 C0 2.68 0 1.36 0 0 Z " fill="#DBA467" transform="translate(234,69)"/>
<path d="M0 0 C3.98381075 2.16264012 6.88983545 4.71211176 10 8 C9.34 8 8.68 8 8 8 C7.34 9.32 6.68 10.64 6 12 C2.41213553 10.34406255 -0.83783588 8.37162309 -4 6 C-4 5.01 -4 4.02 -4 3 C-2 1.3125 -2 1.3125 0 0 Z " fill="#2A415D" transform="translate(162,83)"/>
<path d="M0 0 C3.39576062 -0.05830787 6.7913915 -0.09369946 10.1875 -0.125 C11.14720703 -0.14175781 12.10691406 -0.15851563 13.09570312 -0.17578125 C14.02705078 -0.18222656 14.95839844 -0.18867187 15.91796875 -0.1953125 C16.77156982 -0.20578613 17.6251709 -0.21625977 18.50463867 -0.22705078 C21.30726815 0.02795806 23.44729419 0.84458578 26 2 C26 2.33 26 2.66 26 3 C24.02 3 22.04 3 20 3 C20.33 3.66 20.66 4.32 21 5 C15.78149374 6.36675164 13.66924694 5.47195426 9 3 C6.02632216 2.18944085 3.02785606 1.57192837 0 1 C0 0.67 0 0.34 0 0 Z " fill="#213447" transform="translate(194,75)"/>
<path d="M0 0 C2.09682539 3.14523809 2.24924608 3.87424341 2.23046875 7.45703125 C2.22853516 8.32263672 2.22660156 9.18824219 2.22460938 10.08007812 C2.21236328 10.98177734 2.20011719 11.88347656 2.1875 12.8125 C2.18685547 13.70259766 2.18621094 14.59269531 2.18554688 15.50976562 C2.13271415 23.42880429 1.45558027 28.3166296 -3 35 C-4.15353799 31.61628856 -3.80369174 29.83061519 -2.625 26.5 C-0.05964546 17.91367636 -0.25261423 8.89376324 0 0 Z " fill="#334963" transform="translate(251,118)"/>
<path d="M0 0 C0.66 0 1.32 0 2 0 C2 11.22 2 22.44 2 34 C-0.56657128 31.43342872 -0.34000672 30.12712631 -0.5625 26.5625 C-0.76751306 23.42036099 -0.99964773 21.00105681 -2 18 C-2.38351197 12.28115976 -1.90740191 6.64605634 -1 1 C-0.67 0.67 -0.34 0.34 0 0 Z " fill="#DBF3F3" transform="translate(4,111)"/>
<path d="M0 0 C1.25554687 -0.03738281 2.51109375 -0.07476562 3.8046875 -0.11328125 C7.125 0.3125 7.125 0.3125 9.0703125 2.20703125 C10.125 4.3125 10.125 4.3125 10.125 6.3125 C8.805 6.6425 7.485 6.9725 6.125 7.3125 C6.125 6.3225 6.125 5.3325 6.125 4.3125 C4.16866025 1.90128141 4.16866025 1.90128141 0.5 2.1875 C-1.170625 2.249375 -1.170625 2.249375 -2.875 2.3125 C-2.875 3.6325 -2.875 4.9525 -2.875 6.3125 C-2.875 6.6425 -2.875 6.9725 -2.875 7.3125 C-5.845 7.3125 -8.815 7.3125 -11.875 7.3125 C-7.14339588 0.13877763 -7.14339588 0.13877763 0 0 Z " fill="#DDE8EF" transform="translate(162.875,141.6875)"/>
<path d="M0 0 C0.77537109 0.35191406 0.77537109 0.35191406 1.56640625 0.7109375 C0.90640625 0.7109375 0.24640625 0.7109375 -0.43359375 0.7109375 C-0.76359375 1.7009375 -1.09359375 2.6909375 -1.43359375 3.7109375 C-8.14060633 7.75878209 -14.56262795 10.63693348 -22.43359375 9.7109375 C-22.10359375 9.0509375 -21.77359375 8.3909375 -21.43359375 7.7109375 C-20.73363281 7.57945313 -20.03367188 7.44796875 -19.3125 7.3125 C-14.99216494 6.40974342 -11.34927015 4.17820771 -7.51757812 2.0625 C-2.94505653 -0.3498141 -2.94505653 -0.3498141 0 0 Z " fill="#FCF1DA" transform="translate(188.43359375,70.2890625)"/>
<path d="M0 0 C0.99 0 1.98 0 3 0 C5.1672734 3.2509101 5.25598836 4.20345513 5.265625 7.96484375 C5.26820312 8.92970703 5.27078125 9.89457031 5.2734375 10.88867188 C5.26570313 11.89478516 5.25796875 12.90089844 5.25 13.9375 C5.25773437 14.93974609 5.26546875 15.94199219 5.2734375 16.97460938 C5.27085938 17.94076172 5.26828125 18.90691406 5.265625 19.90234375 C5.26336914 20.78398193 5.26111328 21.66562012 5.25878906 22.57397461 C4.85209922 26.38650003 3.60399581 28.41376877 0.875 31.0625 C-1.34771071 32.90993327 -1.34771071 32.90993327 -1 36 C-2.65 36 -4.3 36 -6 36 C-5.60167969 35.5153125 -5.20335938 35.030625 -4.79296875 34.53125 C2.19480107 25.69027601 4.12491875 18.36456381 3 7 C2.24970139 4.36101869 1.34483168 2.40949009 0 0 Z " fill="#DFF6F5" transform="translate(77,23)"/>
<path d="M0 0 C4.2597105 1.40715751 6.91991422 3.45486711 10.1875 6.5 C11.04730469 7.2940625 11.90710938 8.088125 12.79296875 8.90625 C16.98676652 12.88479089 16.98676652 12.88479089 17.265625 15.3125 C17.26046875 16.199375 17.2553125 17.08625 17.25 18 C17.25515625 18.886875 17.2603125 19.77375 17.265625 20.6875 C17 23 17 23 15 25 C14.01 25 13.02 25 12 25 C12 24.34 12 23.68 12 23 C12.99 23 13.98 23 15 23 C15 19.7 15 16.4 15 13 C14.34 13 13.68 13 13 13 C12.360625 12.195625 11.72125 11.39125 11.0625 10.5625 C9.18964068 7.76279268 9.18964068 7.76279268 6 7 C6 6.34 6 5.68 6 5 C4.68 5 3.36 5 2 5 C0 1.125 0 1.125 0 0 Z " fill="#649B9A" transform="translate(121,77)"/>
<path d="M0 0 C0.66 0.33 1.32 0.66 2 1 C0.48930894 3.86236201 -0.75965293 5.81207762 -3.328125 7.8203125 C-7.12323965 10.91632708 -9.83188837 14.6803964 -12.81640625 18.5390625 C-14.84357485 20.8237069 -16.1913581 21.91730358 -19 23 C-13.20159191 14.88222868 -6.57331761 7.4900711 0 0 Z " fill="#DCE5EC" transform="translate(183,178)"/>
<path d="M0 0 C0.66 0.66 1.32 1.32 2 2 C0.625 3.5 0.625 3.5 -1 5 C-1.66 5 -2.32 5 -3 5 C-2.67 5.66 -2.34 6.32 -2 7 C-0.35 7 1.3 7 3 7 C-0.11016455 10.28788824 -3.01618925 12.83735988 -7 15 C-7 8 -7 8 -4.625 5.4375 C-3.75875 4.633125 -2.8925 3.82875 -2 3 C-1.34 2.01 -0.68 1.02 0 0 Z " fill="#E4ECF1" transform="translate(187,148)"/>
<path d="M0 0 C0.99 0 1.98 0 3 0 C3.33 1.98 3.66 3.96 4 6 C1.04288438 7.64284201 -1.62008426 8.6442194 -5 9 C-5.66 8.34 -6.32 7.68 -7 7 C-5.1875 4.5 -5.1875 4.5 -3 2 C-2.01 2 -1.02 2 0 2 C0 1.34 0 0.68 0 0 Z " fill="#263F60" transform="translate(162,124)"/>
<path d="M0 0 C0.33 0.66 0.66 1.32 1 2 C-1.31 4.97 -3.62 7.94 -6 11 C-6.33 9.68 -6.66 8.36 -7 7 C-8.98 7.99 -10.96 8.98 -13 10 C-11.75237172 6.15314615 -10.6129609 3.97070595 -7 2 C-6.01 2.33 -5.02 2.66 -4 3 C-1.80961577 1.62831762 -1.80961577 1.62831762 0 0 Z " fill="#1E324E" transform="translate(178,110)"/>
<path d="M0 0 C0.0825 1.11375 0.165 2.2275 0.25 3.375 C0.57873787 7.05753944 0.57873787 7.05753944 3.0625 8.4375 C3.701875 8.623125 4.34125 8.80875 5 9 C5 9.99 5 10.98 5 12 C5.66 12.33 6.32 12.66 7 13 C3.00717059 13 1.84668408 11.52191924 -1.1875 9 C-2.08855469 8.2575 -2.98960937 7.515 -3.91796875 6.75 C-4.60503906 6.1725 -5.29210937 5.595 -6 5 C-3.74193548 0 -3.74193548 0 0 0 Z " fill="#DBA464" transform="translate(158,62)"/>
<path d="M0 0 C8.30622213 0.34826927 8.30622213 0.34826927 11.0625 2.9375 C12 5 12 5 12 7 C12.763125 7.144375 13.52625 7.28875 14.3125 7.4375 C17 8 17 8 20 9 C20.33 9.99 20.66 10.98 21 12 C16.14144459 10.567062 12.03669364 8.52445309 7.6875 6 C7.05521484 5.64421875 6.42292969 5.2884375 5.77148438 4.921875 C1.12676222 2.25352444 1.12676222 2.25352444 0 0 Z " fill="#E1F7F7" transform="translate(106,257)"/>
<path d="M0 0 C0.99 0.99 1.98 1.98 3 3 C2.35546875 3.48984375 1.7109375 3.9796875 1.046875 4.484375 C-1.72789277 7.89458577 -1.66800235 11.03084833 -1.75 15.25 C-1.79447266 16.36761719 -1.79447266 16.36761719 -1.83984375 17.5078125 C-1.9102343 19.33796672 -1.95741832 21.16898769 -2 23 C-4.7241562 20.2758438 -4.3308802 18.6781266 -4.375 14.875 C-4.30744945 8.78869549 -3.21185959 5.11890122 0 0 Z " fill="#6EA4A1" transform="translate(32,22)"/>
<path d="M0 0 C0.33 0.66 0.66 1.32 1 2 C0.06981474 3.46300982 -0.86944027 4.92025579 -1.8125 6.375 C-2.33457031 7.18710938 -2.85664063 7.99921875 -3.39453125 8.8359375 C-5 11 -5 11 -8 13 C-8.43494462 8.56356484 -8.54001196 6.67136622 -5.6875 3.125 C-3 1 -3 1 0 0 Z " fill="#213953" transform="translate(223,211)"/>
<path d="M0 0 C0.66 1.32 1.32 2.64 2 4 C0.6875 6 0.6875 6 -1 8 C-1.99 8 -2.98 8 -4 8 C-4 9.32 -4 10.64 -4 12 C-5.75 13.921875 -5.75 13.921875 -8 15.75 C-8.7425 16.36359375 -9.485 16.9771875 -10.25 17.609375 C-10.8275 18.06828125 -11.405 18.5271875 -12 19 C-12.66 18.67 -13.32 18.34 -14 18 C-13.34644531 17.27296875 -13.34644531 17.27296875 -12.6796875 16.53125 C-5.60960906 8.78983522 -5.60960906 8.78983522 0 0 Z " fill="#D8E2EA" transform="translate(221,216)"/>
<path d="M0 0 C0.33 0 0.66 0 1 0 C3.38776806 22.80127986 3.38776806 22.80127986 3 32 C2.67 32 2.34 32 2 32 C0.22374277 24.70472932 -0.25501764 17.86601622 -0.125 10.375 C-0.11597656 9.37082031 -0.10695313 8.36664063 -0.09765625 7.33203125 C-0.07437746 4.88775874 -0.04168487 2.44401592 0 0 Z " fill="#D9F3F3" transform="translate(28,123)"/>
<path d="M0 0 C0.99 0.33 1.98 0.66 3 1 C1.9024777 3.99324263 1.32317108 4.84610901 -1.625 6.25 C-2.40875 6.4975 -3.1925 6.745 -4 7 C-4 8.98 -4 10.96 -4 13 C-5.32 12.01 -6.64 11.02 -8 10 C-7.4346089 6.49304707 -6.31277274 4.97267387 -3.625 2.6875 C-3.01914063 2.15511719 -2.41328125 1.62273437 -1.7890625 1.07421875 C-0.90347656 0.54248047 -0.90347656 0.54248047 0 0 Z " fill="#223957" transform="translate(103,199)"/>
<path d="M0 0 C-4.29 4.29 -8.58 8.58 -13 13 C-13.33 12.34 -13.66 11.68 -14 11 C-13.06421005 8.64018187 -12.06652192 6.30368736 -11 4 C-9.68 4.33 -8.36 4.66 -7 5 C-6.67 3.35 -6.34 1.7 -6 0 C-2.25 -1.125 -2.25 -1.125 0 0 Z " fill="#20364D" transform="translate(205,156)"/>
<path d="M0 0 C0.53625 0.226875 1.0725 0.45375 1.625 0.6875 C1.4375 2.5 1.4375 2.5 0.625 4.6875 C-1.9375 6.4375 -1.9375 6.4375 -4.375 7.6875 C-4.375 7.0275 -4.375 6.3675 -4.375 5.6875 C-5.365 6.0175 -6.355 6.3475 -7.375 6.6875 C-7.705 5.3675 -8.035 4.0475 -8.375 2.6875 C-2.95961538 -0.38942308 -2.95961538 -0.38942308 0 0 Z " fill="#253A53" transform="translate(218.375,139.3125)"/>
<path d="M0 0 C-2.61622796 1.74415198 -4.20310562 2.45897171 -7.125 3.3125 C-12.8725889 5.15624374 -18.68938437 7.68938437 -23 12 C-23.33 10.68 -23.66 9.36 -24 8 C-23.01 8 -22.02 8 -21 8 C-21 7.34 -21 6.68 -21 6 C-19.68 6 -18.36 6 -17 6 C-17 5.34 -17 4.68 -17 4 C-11.02667877 0.5246131 -6.88490225 -0.57374185 0 0 Z " fill="#FBEACC" transform="translate(174,55)"/>
<path d="M0 0 C0.99 0 1.98 0 3 0 C3.433125 1.423125 3.433125 1.423125 3.875 2.875 C4.76825109 6.05211578 4.76825109 6.05211578 7 8 C12.56870532 14.11199365 12.56870532 14.11199365 13 19 C7.88093026 14.36084305 3.65268366 8.85517034 0 3 C0 2.01 0 1.02 0 0 Z " fill="#689E9E" transform="translate(31,207)"/>
<path d="M0 0 C5.90054805 0.46583274 11.02392664 2.90337881 16 6 C16.99 7.485 16.99 7.485 18 9 C15.82034689 8.53293148 14.07412835 8.04200607 12.125 6.9375 C9.34310544 5.71019357 7.00536594 5.86339246 4 6 C4 5.01 4 4.02 4 3 C2.68 2.67 1.36 2.34 0 2 C0 1.34 0 0.68 0 0 Z " fill="#DF9F5A" transform="translate(211,57)"/>
<path d="M0 0 C2.19851588 3.29777383 3.30290122 6.57972835 4.5 10.3125 C4.71269531 10.96412109 4.92539062 11.61574219 5.14453125 12.28710938 C5.76567182 14.19054321 6.38288688 16.09525662 7 18 C7.66464544 20.00067261 8.33054458 22.00093174 9 24 C8.34 24 7.68 24 7 24 C-1.76875 5.14545455 -1.76875 5.14545455 0 0 Z " fill="#75A7A4" transform="translate(31,159)"/>
<path d="M0 0 C0.66 0 1.32 0 2 0 C0.68775452 3.93673644 -0.91910327 6.22719294 -4 9 C-4.99 8.01 -5.98 7.02 -7 6 C-7.99 6.99 -8.98 7.98 -10 9 C-10.66 8.67 -11.32 8.34 -12 8 C-8.375 3.125 -8.375 3.125 -5 2 C-4.01 2 -3.02 2 -2 2 C-1.34 1.34 -0.68 0.68 0 0 Z " fill="#E1EAEF" transform="translate(205,202)"/>
<path d="M0 0 C2.02054804 1.64169528 4.02043058 3.30911778 6 5 C6 5.33 6 5.66 6 6 C4.19402344 6.09087891 4.19402344 6.09087891 2.3515625 6.18359375 C0.77602923 6.26799732 -0.79949096 6.35264541 -2.375 6.4375 C-3.1690625 6.47681641 -3.963125 6.51613281 -4.78125 6.55664062 C-9.02601221 6.68893404 -9.02601221 6.68893404 -13 8 C-12.67 6.68 -12.34 5.36 -12 4 C-8.7 4 -5.4 4 -2 4 C-1.34 2.68 -0.68 1.36 0 0 Z " fill="#D3E2EC" transform="translate(91,128)"/>
<path d="M0 0 C3.45892863 0.88168769 6.45844834 1.66153021 9.5 3.5625 C12.63433664 5.36474357 15.43217093 5.65021284 19 6 C18.67 6.66 18.34 7.32 18 8 C10.91476136 8.91845686 7.56090292 6.84434781 1.90625 2.62890625 C1.2771875 2.09136719 0.648125 1.55382812 0 1 C0 0.67 0 0.34 0 0 Z " fill="#699E9E" transform="translate(114,97)"/>
<path d="M0 0 C0.66 0.33 1.32 0.66 2 1 C1.51789062 1.79664062 1.03578125 2.59328125 0.5390625 3.4140625 C-0.40839844 5.00347656 -0.40839844 5.00347656 -1.375 6.625 C-2.31472656 8.19121094 -2.31472656 8.19121094 -3.2734375 9.7890625 C-4.90451153 12.82241736 -6.02076833 15.70622076 -7 19 C-8.53166168 14.91556885 -7.63081652 11.20544343 -7 7 C-6.34 7 -5.68 7 -5 7 C-4.67 6.01 -4.34 5.02 -4 4 C-3.34 4 -2.68 4 -2 4 C-1.34 2.68 -0.68 1.36 0 0 Z " fill="#E1F7F5" transform="translate(16,84)"/>
<path d="M0 0 C6.68315915 0.05180744 12.22616947 0.77989955 18.3984375 3.3984375 C18.3984375 3.7284375 18.3984375 4.0584375 18.3984375 4.3984375 C10.4784375 4.0684375 2.5584375 3.7384375 -5.6015625 3.3984375 C-2.6015625 0.3984375 -2.6015625 0.3984375 0 0 Z " fill="#75ACAB" transform="translate(72.6015625,81.6015625)"/>
<path d="M0 0 C2.31 0 4.62 0 7 0 C5.94660446 3.27723056 4.36236741 4.60460094 1.5 6.3125 C0.345 6.869375 -0.81 7.42625 -2 8 C-2.66 7.67 -3.32 7.34 -4 7 C-3.67 6.01 -3.34 5.02 -3 4 C-2.34 4 -1.68 4 -1 4 C-0.67 2.68 -0.34 1.36 0 0 Z " fill="#1E3651" transform="translate(155,109)"/>
<path d="M0 0 C-1.83912232 3.67824464 -6.63519562 4.44670093 -10.3125 5.9375 C-12.45658454 7.28747916 -13.0726451 8.68161275 -14 11 C-14.66 10.34 -15.32 9.68 -16 9 C-11.7004608 3.30943341 -7.65312804 -0.675276 0 0 Z " fill="#DAF3F1" transform="translate(47,11)"/>
<path d="M0 0 C1.0828125 0.3403125 1.0828125 0.3403125 2.1875 0.6875 C-1.21616431 4.09116431 -5.26388611 5.50531013 -10 6.0625 C-13.13788824 5.6441149 -14.51203892 4.81100253 -16.8125 2.6875 C-15.92498047 2.73970703 -15.92498047 2.73970703 -15.01953125 2.79296875 C-9.35963831 2.98686394 -4.94247587 -0.54916399 0 0 Z " fill="#70A3A3" transform="translate(138.8125,284.3125)"/>
<path d="M0 0 C4.875 3.875 4.875 3.875 6 5 C6 4.34 6 3.68 6 3 C6.66 3 7.32 3 8 3 C8 4.98 8 6.96 8 9 C6.35 9.33 4.7 9.66 3 10 C0.70366176 6.55549263 0.45983515 4.06187717 0 0 Z " fill="#F5EED7" transform="translate(242,84)"/>
<path d="M0 0 C-1.63412443 1.70840281 -2.86906094 2.93453047 -5 4 C-6.13350534 6.01669827 -6.13350534 6.01669827 -7 8 C-7.99 7.34 -8.98 6.68 -10 6 C-10 5.34 -10 4.68 -10 4 C-10.66 3.67 -11.32 3.34 -12 3 C-11.01 3 -10.02 3 -9 3 C-8.67 2.34 -8.34 1.68 -8 1 C-4.99434913 -0.96921954 -3.38048354 -1.20731555 0 0 Z " fill="#26415F" transform="translate(137,121)"/>
<path d="M0 0 C0.99 0.33 1.98 0.66 3 1 C2.01 1.33 1.02 1.66 0 2 C-0.68486725 3.32407669 -1.34870203 4.65909241 -2 6 C-2.639375 6.61875 -3.27875 7.2375 -3.9375 7.875 C-6.34108849 10.3514245 -7.57946706 12.87482753 -9 16 C-9.66 15.01 -10.32 14.02 -11 13 C-9.92027262 11.5805831 -8.83604137 10.1645917 -7.75 8.75 C-6.84507813 7.56664063 -6.84507813 7.56664063 -5.921875 6.359375 C-4.06817005 4.08368843 -2.11101046 2.03628442 0 0 Z " fill="#6FA3A1" transform="translate(26,75)"/>
<path d="M0 0 C8.19256018 -0.4726477 8.19256018 -0.4726477 11.5625 1.5 C12.036875 1.995 12.51125 2.49 13 3 C11.02 3 9.04 3 7 3 C7 3.66 7 4.32 7 5 C4.69 4.67 2.38 4.34 0 4 C0 2.66666667 0 1.33333333 0 0 Z " fill="#FAF5E5" transform="translate(217,72)"/>
<path d="M0 0 C-6.93 3.465 -6.93 3.465 -14 7 C-14 6.34 -14 5.68 -14 5 C-12.68 4.67 -11.36 4.34 -10 4 C-10 3.34 -10 2.68 -10 2 C-12.64 2 -15.28 2 -18 2 C-18 1.67 -18 1.34 -18 1 C-15.75152519 0.63627613 -13.50113812 0.28435904 -11.25 -0.0625 C-9.99703125 -0.25972656 -8.7440625 -0.45695312 -7.453125 -0.66015625 C-4 -1 -4 -1 0 0 Z " fill="#7EA2A0" transform="translate(165,273)"/>
<path d="M0 0 C1 2 1 2 0.328125 4.12890625 C-0.02765625 4.93199219 -0.3834375 5.73507813 -0.75 6.5625 C-1.09546875 7.36816406 -1.4409375 8.17382812 -1.796875 9.00390625 C-3 11 -3 11 -6 12 C-6.33 12.66 -6.66 13.32 -7 14 C-7.66 14 -8.32 14 -9 14 C-7.65070536 10.16336928 -5.92248975 7.34827431 -3.375 4.1875 C-2.42753906 3.00220703 -2.42753906 3.00220703 -1.4609375 1.79296875 C-0.97882813 1.20128906 -0.49671875 0.60960937 0 0 Z " fill="#1E354F" transform="translate(207,203)"/>
<path d="M0 0 C0.58265625 0.21914062 1.1653125 0.43828125 1.765625 0.6640625 C-1.72796965 4.26040994 -5.34535631 7.49858217 -9.234375 10.6640625 C-9.671875 8.5390625 -9.671875 8.5390625 -9.234375 5.6640625 C-4.01595085 -0.60379681 -4.01595085 -0.60379681 0 0 Z " fill="#6BA2A1" transform="translate(45.234375,91.3359375)"/>
<path d="M0 0 C4.80867947 1.2935629 7.64311729 3.09227033 11.25 6.5 C12.10078125 7.2940625 12.9515625 8.088125 13.828125 8.90625 C15.23078744 10.25845695 16.6223343 11.6223343 18 13 C17.67 13.99 17.34 14.98 17 16 C16.34644531 15.20335938 16.34644531 15.20335938 15.6796875 14.390625 C11.08113703 8.9360673 6.53575079 5.01650036 0 2 C0 1.34 0 0.68 0 0 Z " fill="#24384F" transform="translate(225,80)"/>
<path d="M0 0 C0 0.66 0 1.32 0 2 C1.32 2.66 2.64 3.32 4 4 C4 5.65 4 7.3 4 9 C0.46627288 7.03681826 -2.24479785 4.95929119 -5 2 C-2 0 -2 0 0 0 Z " fill="#E7EAED" transform="translate(154,70)"/>
<path d="M0 0 C2 1 2 1 3.1171875 3.16796875 C4.11525612 6.36973755 4.19853617 8.96660419 4.125 12.3125 C4.10695313 13.38113281 4.08890625 14.44976562 4.0703125 15.55078125 C4.03550781 16.76314453 4.03550781 16.76314453 4 18 C1.09472388 15.09472388 1.28735681 11.78900975 0.875 7.875 C0.78863281 7.12089844 0.70226562 6.36679688 0.61328125 5.58984375 C0.40110739 3.72742873 0.19954237 1.86381069 0 0 Z " fill="#6AA1A0" transform="translate(5,137)"/>
<path d="M0 0 C6.35714175 -0.30272104 12.27553642 -0.10501038 18 3 C18.33 3.99 18.66 4.98 19 6 C16.39392608 5.38221953 13.79034303 4.75612789 11.1875 4.125 C10.44951172 3.95097656 9.71152344 3.77695312 8.95117188 3.59765625 C5.50282963 2.75507489 2.98071638 1.98714425 0 0 Z " fill="#FAE6C4" transform="translate(200,53)"/>
<path d="M0 0 C0.66 0 1.32 0 2 0 C2.26554687 0.56589844 2.53109375 1.13179687 2.8046875 1.71484375 C3.15789063 2.44832031 3.51109375 3.18179688 3.875 3.9375 C4.22304688 4.66839844 4.57109375 5.39929687 4.9296875 6.15234375 C5.8684977 8.16332459 5.8684977 8.16332459 8 9 C8 9.66 8 10.32 8 11 C9.98 11.66 11.96 12.32 14 13 C13.01 13.66 12.02 14.32 11 15 C2.05747605 7.62932112 2.05747605 7.62932112 0 3 C0 2.01 0 1.02 0 0 Z " fill="#679D9C" transform="translate(30,46)"/>
<path d="M0 0 C2.97 0.495 2.97 0.495 6 1 C6 3 6 3 4.625 4.5 C4.08875 4.995 3.5525 5.49 3 6 C2.34 6.66 1.68 7.32 1 8 C1 7.34 1 6.68 1 6 C0.01 6.33 -0.98 6.66 -2 7 C-2.66 6.34 -3.32 5.68 -4 5 C-2.68 3.35 -1.36 1.7 0 0 Z " fill="#26405D" transform="translate(98,119)"/>
<path d="M0 0 C0.66 0.66 1.32 1.32 2 2 C0.02 2 -1.96 2 -4 2 C-3.67 2.66 -3.34 3.32 -3 4 C-5.8125 4.6875 -5.8125 4.6875 -9 5 C-10.875 3.5625 -10.875 3.5625 -12 2 C-7.88581814 0.00524516 -4.55244646 -0.34358086 0 0 Z " fill="#1C2F4C" transform="translate(218,76)"/>
<path d="M0 0 C1.67542976 0.28604898 3.34385343 0.61781233 5 1 C5 2.32 5 3.64 5 5 C4.38125 5.12375 3.7625 5.2475 3.125 5.375 C0.80879168 5.87197356 0.80879168 5.87197356 -1 8 C-1.04241723 5.66705225 -1.04092937 3.33297433 -1 1 C-0.67 0.67 -0.34 0.34 0 0 Z " fill="#2E425A" transform="translate(124,111)"/>
<path d="M0 0 C0.66 0.33 1.32 0.66 2 1 C2 1.99 2 2.98 2 4 C1.34 4 0.68 4 0 4 C0 6.64 0 9.28 0 12 C-1.32 12.33 -2.64 12.66 -4 13 C-3.50269348 8.02693484 -2.44697666 4.36200187 0 0 Z " fill="#649F9D" transform="translate(13,91)"/>
<path d="M0 0 C3.91939465 3.80411834 7.49102731 7.81576108 11 12 C10.67 12.66 10.34 13.32 10 14 C1.33479212 7.10284464 1.33479212 7.10284464 -0.0625 2.5 C-0.041875 1.675 -0.02125 0.85 0 0 Z " fill="#D9F2F3" transform="translate(38,220)"/>
<path d="M0 0 C0.66 0.99 1.32 1.98 2 3 C1.360625 3.2475 0.72125 3.495 0.0625 3.75 C-2.18741541 4.81562433 -2.18741541 4.81562433 -2.75 7.125 C-2.8325 7.74375 -2.915 8.3625 -3 9 C-3.639375 9.12375 -4.27875 9.2475 -4.9375 9.375 C-5.618125 9.58125 -6.29875 9.7875 -7 10 C-7.33 10.66 -7.66 11.32 -8 12 C-8.33 11.01 -8.66 10.02 -9 9 C-6.03 6.03 -3.06 3.06 0 0 Z " fill="#213450" transform="translate(153,188)"/>
<path d="M0 0 C1.86610926 2.79916389 2.68785383 4.81938269 3.625 8 C4.01558594 9.299375 4.01558594 9.299375 4.4140625 10.625 C5 13 5 13 5 16 C4.34 16 3.68 16 3 16 C-0.39366878 10.62669111 -0.32712342 6.13053511 0 0 Z " fill="#D7F1F0" transform="translate(8,157)"/>
<path d="M0 0 C0.33 0.66 0.66 1.32 1 2 C1.66 2.33 2.32 2.66 3 3 C2.67 3.66 2.34 4.32 2 5 C2.66 5 3.32 5 4 5 C3.67 6.32 3.34 7.64 3 9 C1.02 8.01 -0.96 7.02 -3 6 C-2.625 3.5625 -2.625 3.5625 -2 1 C-1.34 0.67 -0.68 0.34 0 0 Z " fill="#2C4666" transform="translate(206,144)"/>
<path d="M0 0 C1.9375 0.375 1.9375 0.375 4 1 C4.33 1.66 4.66 2.32 5 3 C1.95157135 3.90901939 -0.59661636 4.06173367 -3.765625 3.87890625 C-4.65507812 3.83056641 -5.54453125 3.78222656 -6.4609375 3.73242188 C-7.38132813 3.67634766 -8.30171875 3.62027344 -9.25 3.5625 C-10.18585938 3.51029297 -11.12171875 3.45808594 -12.0859375 3.40429688 C-14.39098887 3.27493175 -16.69557289 3.13997966 -19 3 C-19 2.67 -19 2.34 -19 2 C-12.73 2 -6.46 2 0 2 C0 1.34 0 0.68 0 0 Z " fill="#CCD4D9" transform="translate(214,72)"/>
<path d="M0 0 C4.98012761 1.50912958 8.24259942 4.55661849 12 8 C10 9 10 9 7.4375 8.3125 C5 7 5 7 4.1875 4.875 C4.125625 4.25625 4.06375 3.6375 4 3 C2.68 2.67 1.36 2.34 0 2 C0 1.34 0 0.68 0 0 Z " fill="#FDF2D9" transform="translate(230,75)"/>
<path d="M0 0 C1.32 0.66 2.64 1.32 4 2 C3.814375 2.94875 3.62875 3.8975 3.4375 4.875 C2.71313368 7.89868793 2.71313368 7.89868793 4 10 C0.63408134 8.55746343 -1.51047079 6.66735273 -4 4 C-2.35 4 -0.7 4 1 4 C0.67 2.68 0.34 1.36 0 0 Z " fill="#1C334C" transform="translate(151,75)"/>
<path d="M0 0 C0.66 0 1.32 0 2 0 C1.67 5.61 1.34 11.22 1 17 C0.67 17 0.34 17 0 17 C-2.66514806 5.47835991 -2.66514806 5.47835991 0 0 Z " fill="#6DA1A2" transform="translate(27,120)"/>
<path d="M0 0 C5.75 1.625 5.75 1.625 8 5 C7.67 5.99 7.34 6.98 7 8 C4.36 6.02 1.72 4.04 -1 2 C-0.67 1.34 -0.34 0.68 0 0 Z " fill="#E3EAEF" transform="translate(159,78)"/>
<path d="M0 0 C1.9375 0.6875 1.9375 0.6875 4 2 C4.75 4.625 4.75 4.625 5 7 C5.99 7 6.98 7 8 7 C7.67 7.99 7.34 8.98 7 10 C5.35 9.67 3.7 9.34 2 9 C2.33 7.35 2.66 5.7 3 4 C2.01 3.67 1.02 3.34 0 3 C0 2.01 0 1.02 0 0 Z " fill="#E09C53" transform="translate(229,66)"/>
<path d="M0 0 C7.87453532 7.44888476 7.87453532 7.44888476 8.1875 13.8125 C8.125625 14.864375 8.06375 15.91625 8 17 C6.86832369 14.8174814 5.87636148 12.67544888 5 10.375 C4.12076359 7.86923233 4.12076359 7.86923233 2 6 C1.28591666 4.01643517 0.61382258 2.01684563 0 0 Z " fill="#679B99" transform="translate(72,18)"/>
<path d="M0 0 C-4.08278034 1.08318662 -7.17878835 0.83473185 -11.3125 0.0625 C-12.38113281 -0.13214844 -13.44976562 -0.32679687 -14.55078125 -0.52734375 C-15.35902344 -0.68332031 -16.16726562 -0.83929688 -17 -1 C-17 -1.33 -17 -1.66 -17 -2 C-10.65662463 -2.98431687 -5.59430386 -3.7295359 0 0 Z " fill="#D8F1EE" transform="translate(68,12)"/>
<path d="M0 0 C0.66 0 1.32 0 2 0 C4.61407872 5.36190101 6.49228528 10.03435204 7 16 C5.1290051 13.19350765 3.76982048 10.50039527 2.375 7.4375 C1.92898437 6.46683594 1.48296875 5.49617187 1.0234375 4.49609375 C0 2 0 2 0 0 Z " fill="#E1F8F8" transform="translate(37,175)"/>
<path d="M0 0 C1.32 0.66 2.64 1.32 4 2 C3.01 2.495 3.01 2.495 2 3 C1.34786708 5.02463255 1.34786708 5.02463255 1 7 C-2.65316671 5.75023244 -3.78065836 5.32901247 -6 2 C-4.68 2.33 -3.36 2.66 -2 3 C-1.34 2.01 -0.68 1.02 0 0 Z " fill="#1A314F" transform="translate(118,142)"/>
<path d="M0 0 C0.33 0.99 0.66 1.98 1 3 C0.34 3 -0.32 3 -1 3 C-1.33 4.65 -1.66 6.3 -2 8 C-2.99 8 -3.98 8 -5 8 C-5 6.02 -5 4.04 -5 2 C-3.35 1.34 -1.7 0.68 0 0 Z " fill="#2F4866" transform="translate(153,110)"/>
<path d="M0 0 C3.87540045 -0.17615457 6.75515269 -0.28341107 10 2 C10.33 2.99 10.66 3.98 11 5 C11.66 5.33 12.32 5.66 13 6 C12.67 6.66 12.34 7.32 12 8 C8 5.33333333 4 2.66666667 0 0 Z " fill="#FBE8C8" transform="translate(219,59)"/>
<path d="M0 0 C0.763125 0.804375 1.52625 1.60875 2.3125 2.4375 C4.79430898 5.16799024 4.79430898 5.16799024 8 6 C8 6.66 8 7.32 8 8 C9.32 8.66 10.64 9.32 12 10 C11.01 10.33 10.02 10.66 9 11 C6.30078125 9.12890625 6.30078125 9.12890625 3.3125 6.5625 C2.31863281 5.71816406 1.32476562 4.87382812 0.30078125 4.00390625 C-0.45847656 3.34261719 -1.21773438 2.68132812 -2 2 C-1.34 1.34 -0.68 0.68 0 0 Z " fill="#6EA3A2" transform="translate(73,254)"/>
<path d="M0 0 C0.86625 0.3403125 0.86625 0.3403125 1.75 0.6875 C1.75 1.3475 1.75 2.0075 1.75 2.6875 C-0.91666667 4.02083333 -3.58333333 5.35416667 -6.25 6.6875 C-6.25 2.6875 -6.25 2.6875 -4.5 0.875 C-2.25 -0.3125 -2.25 -0.3125 0 0 Z " fill="#1C3452" transform="translate(184.25,233.3125)"/>
<path d="M0 0 C4.97306516 0.49730652 8.63799813 1.55302334 13 4 C13 4.66 13 5.32 13 6 C9.30099992 5.11223998 5.65449539 4.05418136 2 3 C2 2.34 2 1.68 2 1 C1.34 0.67 0.68 0.34 0 0 Z " fill="#649C9B" transform="translate(95,64)"/>
<path d="M0 0 C3.17280351 0.43762807 6.05667611 1.77361505 9 3 C8.67 3.99 8.34 4.98 8 6 C3.05 4.02 3.05 4.02 -2 2 C-1.34 1.34 -0.68 0.68 0 0 Z " fill="#6EA6A6" transform="translate(97,87)"/>
<path d="M0 0 C4.44621124 4.13957599 7.1302597 7.91181789 8 14 C6.125 13.4375 6.125 13.4375 4 12 C2.875 8.6875 2.875 8.6875 2 5 C1.35800351 3.32367583 0.70105843 1.65249487 0 0 Z " fill="#629C9B" transform="translate(48,200)"/>
<path d="M0 0 C6 7.71428571 6 7.71428571 6 11 C5.01 11 4.02 11 3 11 C0.84694043 7.14243493 -0.39253254 4.44870215 0 0 Z " fill="#DFF5F4" transform="translate(21,192)"/>
<path d="M0 0 C0.33 1.32 0.66 2.64 1 4 C0.01 5.485 0.01 5.485 -1 7 C-1.66 7 -2.32 7 -3 7 C-3.33 7.66 -3.66 8.32 -4 9 C-4.66 8.01 -5.32 7.02 -6 6 C-4.02 4.02 -2.04 2.04 0 0 Z " fill="#223954" transform="translate(190,181)"/>
<path d="M0 0 C3.32643967 2.98232523 5.29152862 5.86370087 7 10 C6.67 10.66 6.34 11.32 6 12 C0.11816193 5.92560175 0.11816193 5.92560175 -0.375 2.0625 C-0.25125 1.381875 -0.1275 0.70125 0 0 Z " fill="#CAA271" transform="translate(242,79)"/>
<path d="M0 0 C1 3 1 3 1 6 C-1.64 5.67 -4.28 5.34 -7 5 C-7 4.34 -7 3.68 -7 3 C-4.69 2.01 -2.38 1.02 0 0 Z " fill="#33475B" transform="translate(143,261)"/>
<path d="M0 0 C1.15518918 0.90484792 2.29885406 1.8244206 3.4375 2.75 C4.07558594 3.26046875 4.71367188 3.7709375 5.37109375 4.296875 C7.18810554 6.19667629 7.60423197 7.43586908 8 10 C7.01 10 6.02 10 5 10 C4.34 9.34 3.68 8.68 3 8 C3 7.34 3 6.68 3 6 C2.505 5.34 2.01 4.68 1.5 4 C0 2 0 2 0 0 Z " fill="#203754" transform="translate(112,201)"/>
<path d="M0 0 C2.64 0.33 5.28 0.66 8 1 C6.71937515 2.7074998 5.38232443 4.37373596 4 6 C3.34 6 2.68 6 2 6 C1.34 4.02 0.68 2.04 0 0 Z " fill="#24364E" transform="translate(176,150)"/>
<path d="M0 0 C0.86625 0.7115625 0.86625 0.7115625 1.75 1.4375 C3.92582084 2.9484867 5.42602448 3.54036151 8 4 C8 4.66 8 5.32 8 6 C6.02 6.33 4.04 6.66 2 7 C0.5393715 4.35261084 0 3.10551666 0 0 Z " fill="#1F314A" transform="translate(126,125)"/>
<path d="M0 0 C0.66 0 1.32 0 2 0 C0.22054913 4.04420651 -2.39529673 7.46078487 -5 11 C-5.58203125 9.140625 -5.58203125 9.140625 -6 7 C-4.6875 4.75 -4.6875 4.75 -3 3 C-2.34 3 -1.68 3 -1 3 C-0.67 2.01 -0.34 1.02 0 0 Z " fill="#DAE2EB" transform="translate(102,111)"/>
<path d="M0 0 C2.5625 2.1875 2.5625 2.1875 5 5 C4.8125 7.8125 4.8125 7.8125 4 10 C2.02 8.68 0.04 7.36 -2 6 C-1.34 5.67 -0.68 5.34 0 5 C0.66 5.33 1.32 5.66 2 6 C1.34 4.02 0.68 2.04 0 0 Z " fill="#D7AA76" transform="translate(238,73)"/>
<path d="M0 0 C0.33 0 0.66 0 1 0 C1.66 5.28 2.32 10.56 3 16 C0 14 0 14 -0.75 10.8125 C-0.99909917 7.01373759 -0.6859427 3.73457691 0 0 Z " fill="#DCF4F3" transform="translate(27,33)"/>
<path d="M0 0 C-1.28299758 2.86207152 -2.530636 5.0245088 -5 7 C-5.99 7 -6.98 7 -8 7 C-6.4365884 2.43002763 -5.27390657 0 0 0 Z " fill="#619F9B" transform="translate(41,16)"/>
<path d="M0 0 C4 1.33333333 8 2.66666667 12 4 C12.33 4.99 12.66 5.98 13 7 C8.1725201 5.58707905 4.2837641 3.57025846 0 1 C0 0.67 0 0.34 0 0 Z " fill="#D8F2F3" transform="translate(114,262)"/>
<path d="M0 0 C-0.33 0.99 -0.66 1.98 -1 3 C-4.5625 4.6875 -4.5625 4.6875 -8 6 C-8.66 5.34 -9.32 4.68 -10 4 C-3.375 0 -3.375 0 0 0 Z " fill="#66A19E" transform="translate(41,67)"/>
<path d="M0 0 C4.23429756 1.31061591 8.07407404 2.94356259 12 5 C12 5.99 12 6.98 12 8 C7.44328408 6.48109469 3.68276708 4.04597738 0 1 C0 0.67 0 0.34 0 0 Z " fill="#D5F0F0" transform="translate(94,249)"/>
<path d="M0 0 C0.66 0.33 1.32 0.66 2 1 C1.67 1.556875 1.34 2.11375 1 2.6875 C-0.1309601 5.30284522 -0.15662974 7.1806646 0 10 C-1.32 9.01 -2.64 8.02 -4 7 C-3.43628586 3.73045798 -2.50037734 2.17424117 0 0 Z " fill="#1C2E44" transform="translate(99,202)"/>
<path d="M0 0 C1.98 0 3.96 0 6 0 C6.66 1.32 7.32 2.64 8 4 C6.02 4 4.04 4 2 4 C2 3.01 2 2.02 2 1 C1.34 0.67 0.68 0.34 0 0 Z " fill="#344963" transform="translate(104,198)"/>
<path d="M0 0 C2 2 2 2 2.0625 4.375 C2.041875 5.24125 2.02125 6.1075 2 7 C2.29044914 8.34332728 2.60955794 9.68225804 3 11 C2.01 11.495 2.01 11.495 1 12 C-0.47075246 7.58774263 -1.36884358 4.51718381 0 0 Z " fill="#5B9C99" transform="translate(10,155)"/>
<path d="M0 0 C1 2 1 2 0.51171875 4.12890625 C0.23972656 4.93199219 -0.03226563 5.73507813 -0.3125 6.5625 C-0.57675781 7.36816406 -0.84101563 8.17382812 -1.11328125 9.00390625 C-2 11 -2 11 -4 12 C-3.45660208 7.43545749 -2.20536179 4.0271824 0 0 Z " fill="#263A54" transform="translate(225,167)"/>
<path d="M0 0 C0.86625 0.3403125 0.86625 0.3403125 1.75 0.6875 C0.12660195 2.39634005 -1.54319053 4.06196717 -3.25 5.6875 C-3.91 5.6875 -4.57 5.6875 -5.25 5.6875 C-5.58 4.6975 -5.91 3.7075 -6.25 2.6875 C-2.80384615 -0.38942308 -2.80384615 -0.38942308 0 0 Z " fill="#20354E" transform="translate(163.25,167.3125)"/>
<path d="M0 0 C1.32 0 2.64 0 4 0 C5.85776765 3.13498292 6.20140476 5.37471432 6 9 C3.59927045 6.11912454 1.52708963 3.43595166 0 0 Z " fill="#DDE7EE" transform="translate(179,135)"/>
<path d="M0 0 C0.66 0.33 1.32 0.66 2 1 C0.68 4.63 -0.64 8.26 -2 12 C-2.33 12 -2.66 12 -3 12 C-3.36923077 4.61538462 -3.36923077 4.61538462 -1.5 1.5 C-1.005 1.005 -0.51 0.51 0 0 Z " fill="#71A2A3" transform="translate(32,107)"/>
<path d="M0 0 C0.66 0.33 1.32 0.66 2 1 C-0.97 3.475 -0.97 3.475 -4 6 C-4.99 5.34 -5.98 4.68 -7 4 C-4.61426621 2.10786631 -2.92824652 0.97608217 0 0 Z " fill="#DDF2F3" transform="translate(54,88)"/>
<path d="M0 0 C2.96404505 2.80804268 5.44499019 5.18315774 7 9 C3.64564078 7.61198929 1.88709697 6.11371 0 3 C0 2.01 0 1.02 0 0 Z " fill="#DAE5EB" transform="translate(110,226)"/>
<path d="M0 0 C0.66 1.32 1.32 2.64 2 4 C0.6875 6 0.6875 6 -1 8 C-1.99 8 -2.98 8 -4 8 C-2.66666667 5.33333333 -1.33333333 2.66666667 0 0 Z " fill="#E3EBF3" transform="translate(221,216)"/>
<path d="M0 0 C2 2 2 2 2 5 C2.66 5 3.32 5 4 5 C4 7.64 4 10.28 4 13 C1.68917959 8.54341778 0 5.09639729 0 0 Z " fill="#E3F8F7" transform="translate(33,162)"/>
<path d="M0 0 C0 3.99904969 -1.72586967 5.80200422 -4 9 C-4.99 8.67 -5.98 8.34 -7 8 C-6.02133662 6.85373678 -5.04205413 5.70800212 -4.0625 4.5625 C-3.51722656 3.92441406 -2.97195312 3.28632813 -2.41015625 2.62890625 C-1.63204305 1.73008851 -0.84063472 0.84063472 0 0 Z " fill="#D5E0E7" transform="translate(205,155)"/>
<path d="M0 0 C2.31 0 4.62 0 7 0 C6.1875 1.9375 6.1875 1.9375 5 4 C4.01 4.33 3.02 4.66 2 5 C1.34 3.35 0.68 1.7 0 0 Z " fill="#1F2E49" transform="translate(155,109)"/>
<path d="M0 0 C2.0625 0.4375 2.0625 0.4375 4 1 C3.25 3.4375 3.25 3.4375 2 6 C-0.125 6.8125 -0.125 6.8125 -2 7 C-1.34 6.01 -0.68 5.02 0 4 C-0.33 3.01 -0.66 2.02 -1 1 C-0.67 0.67 -0.34 0.34 0 0 Z " fill="#5B9D9C" transform="translate(32,101)"/>
<path d="M0 0 C1.90608098 3.21182149 2.22266247 5.53882603 2.125 9.25 C2.10695312 10.14203125 2.08890625 11.0340625 2.0703125 11.953125 C2.03550781 12.96632813 2.03550781 12.96632813 2 14 C1.67 14 1.34 14 1 14 C0.96261719 13.39671875 0.92523438 12.7934375 0.88671875 12.171875 C0.43746659 6.00632228 0.43746659 6.00632228 -3 1 C-2.01 0.67 -1.02 0.34 0 0 Z " fill="#CCE6E4" transform="translate(137,85)"/>
<path d="M0 0 C1.65 0.33 3.3 0.66 5 1 C4 3 3 5 2 7 C1.01 6.67 0.02 6.34 -1 6 C-0.67 4.02 -0.34 2.04 0 0 Z " fill="#1E3653" transform="translate(157,81)"/>
<path d="M0 0 C0.66 0 1.32 0 2 0 C2 0.66 2 1.32 2 2 C2.99 2 3.98 2 5 2 C5.33 4.64 5.66 7.28 6 10 C3.47650757 6.87567603 1.72743854 3.61939504 0 0 Z " fill="#FCEBCD" transform="translate(242,77)"/>
<path d="M0 0 C0.99 0 1.98 0 3 0 C3 1.65 3 3.3 3 5 C0.03 4.01 -2.94 3.02 -6 2 C-2 1 -2 1 0 2 C0 1.34 0 0.68 0 0 Z " fill="#DDE5EC" transform="translate(224,75)"/>
<path d="M0 0 C1.32 0.33 2.64 0.66 4 1 C2.73760288 1.86658615 1.46472499 2.71792059 0.1875 3.5625 C-0.87404297 4.27599609 -0.87404297 4.27599609 -1.95703125 5.00390625 C-4 6 -4 6 -7 5 C-2.25 2 -2.25 2 0 2 C0 1.34 0 0.68 0 0 Z " fill="#5D9595" transform="translate(147,279)"/>
<path d="M0 0 C0.90492188 0.30357422 0.90492188 0.30357422 1.828125 0.61328125 C0.70738638 1.4523369 -0.41862047 2.28435956 -1.546875 3.11328125 C-2.17335937 3.57734375 -2.79984375 4.04140625 -3.4453125 4.51953125 C-5.171875 5.61328125 -5.171875 5.61328125 -7.171875 5.61328125 C-7.171875 4.95328125 -7.171875 4.29328125 -7.171875 3.61328125 C-2.92048515 -0.52001444 -2.92048515 -0.52001444 0 0 Z " fill="#DCE5ED" transform="translate(160.171875,249.38671875)"/>
<path d="M0 0 C6.52307692 1.47692308 6.52307692 1.47692308 8.9375 4.125 C9.288125 4.74375 9.63875 5.3625 10 6 C6.62972148 6 5.93297304 5.50175992 3.3125 3.5625 C2.68988281 3.11003906 2.06726563 2.65757813 1.42578125 2.19140625 C0.95527344 1.79824219 0.48476562 1.40507813 0 1 C0 0.67 0 0.34 0 0 Z " fill="#D6F1EF" transform="translate(123,77)"/>
<path d="M0 0 C-3.22799293 1.73815004 -6.47027167 3.00246808 -10 4 C-10.66 3.67 -11.32 3.34 -12 3 C-12 2.34 -12 1.68 -12 1 C-7.95858806 0.36605303 -4.0934693 -0.12404452 0 0 Z " fill="#324864" transform="translate(215,75)"/>
<path d="M0 0 C0 0.66 0 1.32 0 2 C-0.99 2 -1.98 2 -3 2 C-3 2.66 -3 3.32 -3 4 C-4.5 5.625 -4.5 5.625 -6 7 C-8 6 -8 6 -9 4 C-2.25 0 -2.25 0 0 0 Z " fill="#D6EEF0" transform="translate(154,279)"/>
<path d="M0 0 C1.64846769 0.44876616 3.29373455 0.90930488 4.9375 1.375 C5.85402344 1.63023437 6.77054687 1.88546875 7.71484375 2.1484375 C10 3 10 3 11 5 C4.6 4.50769231 4.6 4.50769231 1.5625 1.9375 C1.046875 1.298125 0.53125 0.65875 0 0 Z " fill="#6BA2A0" transform="translate(99,275)"/>
<path d="M0 0 C-5.625 3 -5.625 3 -9 3 C-9.33 3.66 -9.66 4.32 -10 5 C-9.875 3.125 -9.875 3.125 -9 1 C-5.3931275 -0.64661571 -3.8148779 -1.27162597 0 0 Z " fill="#DCE9EE" transform="translate(145,261)"/>
<path d="M0 0 C1.65 0 3.3 0 5 0 C3.71937515 1.7074998 2.38232443 3.37373596 1 5 C0.34 5 -0.32 5 -1 5 C-0.67 3.35 -0.34 1.7 0 0 Z " fill="#2D4564" transform="translate(146,259)"/>
<path d="M0 0 C0 0.66 0 1.32 0 2 C1.65 2 3.3 2 5 2 C5 2.33 5 2.66 5 3 C1.7 3.66 -1.6 4.32 -5 5 C-5 4.01 -5 3.02 -5 2 C-2 0 -2 0 0 0 Z " fill="#D7E1E8" transform="translate(157,106)"/>
<path d="M0 0 C0.66 0.33 1.32 0.66 2 1 C1.19152271 2.16945792 0.37810888 3.33550461 -0.4375 4.5 C-0.88996094 5.1496875 -1.34242187 5.799375 -1.80859375 6.46875 C-2.20175781 6.9740625 -2.59492187 7.479375 -3 8 C-3.33 8 -3.66 8 -4 8 C-4 6.35 -4 4.7 -4 3 C-3.01 3 -2.02 3 -1 3 C-0.67 2.01 -0.34 1.02 0 0 Z " fill="#6B9E9E" transform="translate(77,48)"/>
<path d="M0 0 C3.465 1.485 3.465 1.485 7 3 C6.01 3.99 5.02 4.98 4 6 C2 4.6875 2 4.6875 0 3 C0 2.01 0 1.02 0 0 Z " fill="#69A5A2" transform="translate(118,265)"/>
<path d="M0 0 C0.99 0 1.98 0 3 0 C1.70700306 2.88437779 0.34058637 4.87219421 -2 7 C-2.66 6.67 -3.32 6.34 -4 6 C-2.84826645 3.53199953 -1.95216435 1.95216435 0 0 Z " fill="#24374F" transform="translate(200,238)"/>
<path d="M0 0 C0.33 0.66 0.66 1.32 1 2 C-0.4375 4.625 -0.4375 4.625 -2 7 C-2.99 6.34 -3.98 5.68 -5 5 C-3.35 3.35 -1.7 1.7 0 0 Z " fill="#1E304B" transform="translate(189,226)"/>
<path d="M0 0 C0.99 0 1.98 0 3 0 C1.70700306 2.88437779 0.34058637 4.87219421 -2 7 C-2.125 4.625 -2.125 4.625 -2 2 C-1.34 1.34 -0.68 0.68 0 0 Z " fill="#DBE5EC" transform="translate(152,131)"/>
<path d="M0 0 C1.98 0.99 1.98 0.99 4 2 C4 3.32 4 4.64 4 6 C3.01 6.33 2.02 6.66 1 7 C0.67 4.69 0.34 2.38 0 0 Z " fill="#18304F" transform="translate(124,117)"/>
<path d="M0 0 C4.875 1.75 4.875 1.75 6 4 C5.67 4.66 5.34 5.32 5 6 C4.34 6 3.68 6 3 6 C2.67 5.01 2.34 4.02 2 3 C1.01 3 0.02 3 -1 3 C-0.67 2.01 -0.34 1.02 0 0 Z " fill="#1E2E44" transform="translate(110,104)"/>
<path d="M0 0 C-6.4 3.07692308 -6.4 3.07692308 -9.4375 2.6875 C-9.953125 2.460625 -10.46875 2.23375 -11 2 C-3.57142857 -1.57142857 -3.57142857 -1.57142857 0 0 Z " fill="#F9DFBA" transform="translate(190,71)"/>
<path d="M0 0 C0.33 0.99 0.66 1.98 1 3 C-3.75 7 -3.75 7 -6 7 C-6 6.34 -6 5.68 -6 5 C-4.04072937 3.2856382 -2.04119788 1.61594832 0 0 Z " fill="#213751" transform="translate(132,211)"/>
<path d="M0 0 C0.66 0 1.32 0 2 0 C1.50168276 3.68754757 0.89932357 5.60490662 -2 8 C-2.20086443 4.28400809 -2.1519437 3.22791555 0 0 Z " fill="#D4E2E8" transform="translate(216,182)"/>
<path d="M0 0 C0.33 0 0.66 0 1 0 C1.36923077 5.53846154 1.36923077 5.53846154 -0.5 7.875 C-1.2425 8.431875 -1.2425 8.431875 -2 9 C-2 7.02 -2 5.04 -2 3 C-1.34 3 -0.68 3 0 3 C0 2.01 0 1.02 0 0 Z " fill="#E8F0F4" transform="translate(249,160)"/>
<path d="M0 0 C0.99 0.33 1.98 0.66 3 1 C1.02 3.97 1.02 3.97 -1 7 C-1.66 6.01 -2.32 5.02 -3 4 C-2.01 2.68 -1.02 1.36 0 0 Z " fill="#DBEAEF" transform="translate(62,156)"/>
<path d="M0 0 C2.475 0.99 2.475 0.99 5 2 C5 2.99 5 3.98 5 5 C3.02 4.34 1.04 3.68 -1 3 C-0.67 2.01 -0.34 1.02 0 0 Z " fill="#29425A" transform="translate(100,128)"/>
<path d="M0 0 C0.94875 0.04125 1.8975 0.0825 2.875 0.125 C1.555 1.445 0.235 2.765 -1.125 4.125 C-2.445 3.465 -3.765 2.805 -5.125 2.125 C-3.125 0.125 -3.125 0.125 0 0 Z " fill="#1F3450" transform="translate(146.125,117.875)"/>
<path d="M0 0 C0.33 0.99 0.66 1.98 1 3 C-0.4375 5.1875 -0.4375 5.1875 -2 7 C-3.32 6.34 -4.64 5.68 -6 5 C-5.195625 4.54625 -4.39125 4.0925 -3.5625 3.625 C-0.91143428 2.25274335 -0.91143428 2.25274335 0 0 Z " fill="#CCD7E0" transform="translate(162,109)"/>
<path d="M0 0 C0 2.31 0 4.62 0 7 C-0.37125 6.1028125 -0.37125 6.1028125 -0.75 5.1875 C-2.16370012 2.71352479 -3.65055383 1.56629745 -6 0 C-3 -1 -3 -1 0 0 Z " fill="#DBE3E9" transform="translate(131,110)"/>
<path d="M0 0 C1.32 0.33 2.64 0.66 4 1 C1.75 3.0625 1.75 3.0625 -1 5 C-3.3125 4.75 -3.3125 4.75 -5 4 C-4.0409375 3.8453125 -4.0409375 3.8453125 -3.0625 3.6875 C-2.381875 3.460625 -1.70125 3.23375 -1 3 C-0.67 2.01 -0.34 1.02 0 0 Z " fill="#DFF3F3" transform="translate(137,100)"/>
<path d="M0 0 C0.99 0.66 1.98 1.32 3 2 C-0.75 5 -0.75 5 -3 5 C-3 3.68 -3 2.36 -3 1 C-2.01 0.67 -1.02 0.34 0 0 Z " fill="#5C9897" transform="translate(49,87)"/>
<path d="M0 0 C-0.33 0.66 -0.66 1.32 -1 2 C-3.97 1.67 -6.94 1.34 -10 1 C-6.1496895 -1.56687367 -4.41430237 -0.83288724 0 0 Z " fill="#DFA665" transform="translate(221,68)"/>
<path d="M0 0 C2.97 0.33 5.94 0.66 9 1 C9 1.99 9 2.98 9 4 C6.03 3.01 3.06 2.02 0 1 C0 0.67 0 0.34 0 0 Z " fill="#D7F0EE" transform="translate(92,61)"/>
</svg>
